<?xml version="1.0" encoding="UTF-8"?>
<svg version="1.1" xmlns="http://www.w3.org/2000/svg" width="500" height="500">
<path d="M0 0 C0.69893372 0.00060425 1.39786743 0.0012085 2.11798096 0.00183105 C30.19572572 0.06742765 62.21638433 3.46290974 86.4375 19.1875 C87.39755242 22.06765725 87.56521738 23.87550024 87.57121277 26.86700439 C87.57761024 28.30945778 87.57761024 28.30945778 87.58413696 29.78105164 C87.58368378 30.83460342 87.58323059 31.88815521 87.58276367 32.97363281 C87.58612228 34.08448746 87.5894809 35.1953421 87.59294128 36.33985901 C87.60246377 40.02345896 87.60439519 43.7070135 87.60546875 47.390625 C87.60868091 49.94789651 87.61204495 52.50516784 87.61555481 55.06243896 C87.62154967 60.42916362 87.62343716 65.7958713 87.62280273 71.16259766 C87.62220274 77.35586738 87.63273902 83.54904977 87.6485464 89.74229741 C87.66322778 95.70794873 87.66678994 101.67357354 87.66619301 107.63924408 C87.66737289 110.1733511 87.6717951 112.70745876 87.67952538 115.24155426 C87.6893318 118.78903926 87.68644423 122.33630039 87.68041992 125.88378906 C87.68603943 126.92924393 87.69165894 127.97469879 87.69744873 129.05183411 C87.6508654 139.85687456 84.84652085 148.03757707 77.4375 156.1875 C76.7775 156.1875 76.1175 156.1875 75.4375 156.1875 C75.4375 156.8475 75.4375 157.5075 75.4375 158.1875 C74.7775 158.1875 74.1175 158.1875 73.4375 158.1875 C73.4375 158.8475 73.4375 159.5075 73.4375 160.1875 C70.49771596 162.68112139 67.29414763 164.8195898 64.12646484 167.01367188 C63.01783374 167.78416889 61.9137962 168.56132648 60.81494141 169.34570312 C45.9434598 179.95996286 29.57970905 188.1194013 12.875 195.4375 C12.01310059 195.82043213 11.15120117 196.20336426 10.26318359 196.59790039 C4.81485606 198.91238288 0.67885644 200.19527599 -5.17578125 198.375 C-8.31252667 196.99501359 -11.44377633 195.60794319 -14.5625 194.1875 C-15.4891748 193.77733643 -15.4891748 193.77733643 -16.43457031 193.35888672 C-28.21301271 188.14271937 -39.3621327 181.96106795 -50.45507812 175.42333984 C-52.18064606 174.41142779 -53.92394714 173.4298102 -55.671875 172.45703125 C-56.29578125 172.03808594 -56.9196875 171.61914062 -57.5625 171.1875 C-57.5625 170.5275 -57.5625 169.8675 -57.5625 169.1875 C-58.60470703 168.83171875 -58.60470703 168.83171875 -59.66796875 168.46875 C-63.08448185 166.9564473 -65.92006671 164.93511633 -68.875 162.6875 C-69.69967773 162.08228516 -69.69967773 162.08228516 -70.54101562 161.46484375 C-71.92257451 160.42481309 -73.24806298 159.31116546 -74.5625 158.1875 C-74.5625 157.5275 -74.5625 156.8675 -74.5625 156.1875 C-75.2225 156.1875 -75.8825 156.1875 -76.5625 156.1875 C-78.21875 154.359375 -78.21875 154.359375 -80.0625 151.9375 C-80.6709375 151.14859375 -81.279375 150.3596875 -81.90625 149.546875 C-87.05195176 142.21667721 -86.71151509 134.68409675 -86.70776367 126.01318359 C-86.71112228 124.89707199 -86.7144809 123.78096039 -86.71794128 122.63102722 C-86.7274248 118.94931927 -86.72939278 115.26765689 -86.73046875 111.5859375 C-86.73368202 109.02576682 -86.73704614 106.46559632 -86.74055481 103.90542603 C-86.74653877 98.54404195 -86.74843822 93.18267484 -86.74780273 87.82128906 C-86.74720098 81.62619315 -86.75777648 75.43118403 -86.7735464 69.23611009 C-86.78819422 63.26884046 -86.79179098 57.3015974 -86.79119301 51.33430862 C-86.79237497 48.79772206 -86.79680882 46.26113489 -86.80452538 43.72455978 C-86.81429171 40.18397484 -86.81146092 36.6436157 -86.80541992 33.10302734 C-86.81103943 32.05149979 -86.81665894 30.99997223 -86.82244873 29.9165802 C-86.816157 28.46989708 -86.816157 28.46989708 -86.80973816 26.99398804 C-86.81028293 26.15741858 -86.81082769 25.32084911 -86.81138897 24.45892906 C-86.53546103 21.94073491 -85.88503511 20.33670288 -84.5625 18.1875 C-82.90869141 17.09423828 -82.90869141 17.09423828 -80.9140625 16.2578125 C-80.16624512 15.94030029 -79.41842773 15.62278809 -78.64794922 15.2956543 C-77.83600098 14.97121338 -77.02405273 14.64677246 -76.1875 14.3125 C-75.3433252 13.96807861 -74.49915039 13.62365723 -73.62939453 13.26879883 C-49.56409894 3.67955376 -25.86026819 -0.04160448 0 0 Z " fill="#254468" transform="translate(249.5625,151.8125)"/>
<path d="M0 0 C0.33 0 0.66 0 1 0 C1 37.95 1 75.9 1 115 C0.67 115 0.34 115 0 115 C-0.33 100.15 -0.66 85.3 -1 70 C-1.33 70.33 -1.66 70.66 -2 71 C-4.33944736 70.71269945 -6.6739143 70.38063221 -9 70 C-9.33 69.01 -9.66 68.02 -10 67 C-19.9 67 -29.8 67 -40 67 C-40 69.64 -40 72.28 -40 75 C-38.35 75 -36.7 75 -35 75 C-34.34 73.68 -33.68 72.36 -33 71 C-29.625 70.8125 -29.625 70.8125 -26 71 C-23.68638198 74.47042703 -23.48979272 75.91834173 -24 80 C-25.6875 81.9375 -25.6875 81.9375 -28 83 C-31.37036311 82.75925978 -32.58798021 82.41201979 -35 80 C-37.57061311 79.35232207 -37.57061311 79.35232207 -40 79 C-40 81.64 -40 84.28 -40 87 C-36.39490895 86.9192124 -32.79152079 86.80636316 -29.1875 86.6875 C-28.16333984 86.66494141 -27.13917969 86.64238281 -26.08398438 86.61914062 C-25.10107422 86.58369141 -24.11816406 86.54824219 -23.10546875 86.51171875 C-22.19949951 86.48553467 -21.29353027 86.45935059 -20.36010742 86.43237305 C-17.57208966 85.92160658 -16.87011492 85.03827512 -15 83 C-11.85514075 82.60689259 -9.86718329 82.52444787 -7.0625 84.0625 C-5.35212205 87.18142449 -6.19486137 89.65557801 -7 93 C-9.79870027 94.39935013 -11.90498792 94.25265405 -15 94 C-15.45286377 93.51039795 -15.90572754 93.0207959 -16.37231445 92.51635742 C-18.6029331 90.43830547 -20.09225856 90.57536825 -23.10546875 90.48828125 C-24.43421021 90.43861206 -24.43421021 90.43861206 -25.78979492 90.38793945 C-26.9110376 90.36304443 -28.03228027 90.33814941 -29.1875 90.3125 C-32.755625 90.209375 -36.32375 90.10625 -40 90 C-40 100.89 -40 111.78 -40 123 C-46.6 123 -53.2 123 -60 123 C-60 116.4 -60 109.8 -60 103 C-63.96 102.67 -67.92 102.34 -72 102 C-72 108.93 -72 115.86 -72 123 C-76.62 123 -81.24 123 -86 123 C-86 86.7 -86 50.4 -86 13 C-78.74824109 14.61150198 -71.648145 16.38892857 -64.5 18.375 C-63.42363281 18.66632813 -62.34726562 18.95765625 -61.23828125 19.2578125 C-44.58885517 23.88152644 -44.58885517 23.88152644 -40 30 C-40 33.3 -40 36.6 -40 40 C-32.74 40 -25.48 40 -18 40 C-17.34 38.68 -16.68 37.36 -16 36 C-15 35 -15 35 -12.125 34.6875 C-9 35 -9 35 -7.0625 36.625 C-5.63510637 39.81564458 -6.06156734 41.67939213 -7 45 C-9 47 -9 47 -11.9375 47.3125 C-15 47 -15 47 -16.37231445 45.51245117 C-18.60336115 43.43935468 -20.09508728 43.57528649 -23.10546875 43.48828125 C-24.57983398 43.43510742 -24.57983398 43.43510742 -26.08398438 43.38085938 C-27.10814453 43.35830078 -28.13230469 43.33574219 -29.1875 43.3125 C-30.22326172 43.27833984 -31.25902344 43.24417969 -32.32617188 43.20898438 C-34.8840066 43.12647358 -37.44149723 43.05733428 -40 43 C-40 45.64 -40 48.28 -40 51 C-37.08482708 49.92598892 -35.22189824 49.22189824 -33 47 C-28.94738713 46.65509678 -27.45245824 46.69836118 -24 49 C-23.6875 52.5 -23.6875 52.5 -24 56 C-26 58 -26 58 -29.625 58.125 C-30.73875 58.08375 -31.8525 58.0425 -33 58 C-33.66 56.68 -34.32 55.36 -35 54 C-36.65 54 -38.3 54 -40 54 C-40 56.97 -40 59.94 -40 63 C-35.92432487 62.93111428 -31.84955199 62.843146 -27.7746582 62.73754883 C-26.38870623 62.70431451 -25.00261939 62.67627774 -23.61645508 62.65356445 C-21.62293157 62.61999383 -19.62978259 62.56612 -17.63671875 62.51171875 C-16.43748779 62.48553467 -15.23825684 62.45935059 -14.00268555 62.43237305 C-10.70626175 61.95770303 -10.09002351 61.42155822 -8 59 C-4.875 58.75 -4.875 58.75 -2 59 C-1.67 59.33 -1.34 59.66 -1 60 C-0.67 40.2 -0.34 20.4 0 0 Z " fill="#EEF0D2" transform="translate(336,174)"/>
<path d="M0 0 C0.33 0 0.66 0 1 0 C1 37.95 1 75.9 1 115 C0.67 115 0.34 115 0 115 C-0.33 100.15 -0.66 85.3 -1 70 C-1.33 70.33 -1.66 70.66 -2 71 C-4.33944736 70.71269945 -6.6739143 70.38063221 -9 70 C-9.33 69.01 -9.66 68.02 -10 67 C-19.9 67 -29.8 67 -40 67 C-40 69.64 -40 72.28 -40 75 C-38.35 75 -36.7 75 -35 75 C-34.34 73.68 -33.68 72.36 -33 71 C-29.625 70.8125 -29.625 70.8125 -26 71 C-23.68638198 74.47042703 -23.48979272 75.91834173 -24 80 C-25.6875 81.9375 -25.6875 81.9375 -28 83 C-31.37036311 82.75925978 -32.58798021 82.41201979 -35 80 C-37.57061311 79.35232207 -37.57061311 79.35232207 -40 79 C-40 81.64 -40 84.28 -40 87 C-36.39490895 86.9192124 -32.79152079 86.80636316 -29.1875 86.6875 C-28.16333984 86.66494141 -27.13917969 86.64238281 -26.08398438 86.61914062 C-25.10107422 86.58369141 -24.11816406 86.54824219 -23.10546875 86.51171875 C-22.19949951 86.48553467 -21.29353027 86.45935059 -20.36010742 86.43237305 C-17.57208966 85.92160658 -16.87011492 85.03827512 -15 83 C-11.85514075 82.60689259 -9.86718329 82.52444787 -7.0625 84.0625 C-5.35212205 87.18142449 -6.19486137 89.65557801 -7 93 C-9.79870027 94.39935013 -11.90498792 94.25265405 -15 94 C-15.45286377 93.51039795 -15.90572754 93.0207959 -16.37231445 92.51635742 C-18.6029331 90.43830547 -20.09225856 90.57536825 -23.10546875 90.48828125 C-24.43421021 90.43861206 -24.43421021 90.43861206 -25.78979492 90.38793945 C-26.9110376 90.36304443 -28.03228027 90.33814941 -29.1875 90.3125 C-32.755625 90.209375 -36.32375 90.10625 -40 90 C-40 100.89 -40 111.78 -40 123 C-46.6 123 -53.2 123 -60 123 C-60 116.4 -60 109.8 -60 103 C-61.32 102.67 -62.64 102.34 -64 102 C-65.33333333 101.66666667 -66.66666667 101.33333333 -68 101 C-67.67 99.68 -67.34 98.36 -67 97 C-66.34 97 -65.68 97 -65 97 C-65.05220703 95.66195312 -65.05220703 95.66195312 -65.10546875 94.296875 C-65.13253906 93.12640625 -65.15960938 91.9559375 -65.1875 90.75 C-65.22230469 89.58984375 -65.25710938 88.4296875 -65.29296875 87.234375 C-65 84 -65 84 -62 80 C-57.71 80.66 -53.42 81.32 -49 82 C-49 78.37 -49 74.74 -49 71 C-50.485 70.505 -50.485 70.505 -52 70 C-54 65.78947368 -54 65.78947368 -54 64 C-51.69 64 -49.38 64 -47 64 C-47.04640625 63.35933594 -47.0928125 62.71867187 -47.140625 62.05859375 C-47.48804439 53.7329362 -45.19284799 49.49105999 -40 43 C-40 45.64 -40 48.28 -40 51 C-37.08482708 49.92598892 -35.22189824 49.22189824 -33 47 C-28.94738713 46.65509678 -27.45245824 46.69836118 -24 49 C-23.6875 52.5 -23.6875 52.5 -24 56 C-26 58 -26 58 -29.625 58.125 C-30.73875 58.08375 -31.8525 58.0425 -33 58 C-33.66 56.68 -34.32 55.36 -35 54 C-36.65 54 -38.3 54 -40 54 C-40 56.97 -40 59.94 -40 63 C-35.92432487 62.93111428 -31.84955199 62.843146 -27.7746582 62.73754883 C-26.38870623 62.70431451 -25.00261939 62.67627774 -23.61645508 62.65356445 C-21.62293157 62.61999383 -19.62978259 62.56612 -17.63671875 62.51171875 C-16.43748779 62.48553467 -15.23825684 62.45935059 -14.00268555 62.43237305 C-10.70626175 61.95770303 -10.09002351 61.42155822 -8 59 C-4.875 58.75 -4.875 58.75 -2 59 C-1.67 59.33 -1.34 59.66 -1 60 C-0.67 40.2 -0.34 20.4 0 0 Z " fill="#EEEFCF" transform="translate(336,174)"/>
<path d="M0 0 C0.33 0 0.66 0 1 0 C1.33 19.8 1.66 39.6 2 60 C2.495 59.505 2.495 59.505 3 59 C5.875 58.75 5.875 58.75 9 59 C9.46317627 59.49411377 9.92635254 59.98822754 10.40356445 60.49731445 C12.54576219 62.51371254 13.7663708 62.3484133 16.66796875 62.29296875 C17.56064453 62.28330078 18.45332031 62.27363281 19.37304688 62.26367188 C20.76620117 62.2259668 20.76620117 62.2259668 22.1875 62.1875 C23.12787109 62.17396484 24.06824219 62.16042969 25.03710938 62.14648438 C27.35865038 62.11113096 29.67903653 62.06178674 32 62 C32.33 61.01 32.66 60.02 33 59 C32.0925 58.95875 31.185 58.9175 30.25 58.875 C27 58 27 58 24.5625 55.25 C23 52 23 52 23.125 49.25 C24.20626979 46.46959196 25.33883726 45.33058137 28 44 C28 44.66 28 45.32 28 46 C29.32 46 30.64 46 32 46 C32 45.34 32 44.68 32 44 C29.89646505 43.9189794 27.79204048 43.86080093 25.6875 43.8125 C24.51574219 43.77769531 23.34398437 43.74289063 22.13671875 43.70703125 C18.67193294 44.03064138 18.14504671 44.46015942 16 47 C12.9375 47.3125 12.9375 47.3125 10 47 C8 45 8 45 7.8046875 43.0546875 C7.90234375 40.02734375 7.90234375 40.02734375 8 37 C10.41021064 35.48245997 11.68335622 34.97683094 14.5625 35.1875 C17 36 17 36 18.35791016 37.5144043 C20.51253739 39.46369164 21.8355419 39.44758633 24.7109375 39.58203125 C25.62617188 39.62650391 26.54140625 39.67097656 27.484375 39.71679688 C28.43828125 39.74837891 29.3921875 39.77996094 30.375 39.8125 C31.32117188 39.86341797 32.26734375 39.91433594 33.2421875 39.96679688 C38.0828317 40.16735727 41.54230207 40.09115945 46 38 C46.99 38.33 47.98 38.66 49 39 C49.33 37.68 49.66 36.36 50 35 C54.455 34.505 54.455 34.505 59 34 C59 37.96 59 41.92 59 46 C58.01 46.495 58.01 46.495 57 47 C56.505 47.99 56.505 47.99 56 49 C55.01 49 54.02 49 53 49 C53 49.66 53 50.32 53 51 C55.31 51 57.62 51 60 51 C60 55.29 60 59.58 60 64 C63.24849977 62.27773504 63.24849977 62.27773504 64 59 C64.99 59 65.98 59 67 59 C67 55.7 67 52.4 67 49 C71.455 48.505 71.455 48.505 76 48 C76 51.3 76 54.6 76 58 C75.01 58 74.02 58 73 58 C73 58.99 73 59.98 73 61 C71.68 61 70.36 61 69 61 C68.67 62.65 68.34 64.3 68 66 C72.455 65.505 72.455 65.505 77 65 C77 68.3 77 71.6 77 75 C72.49646738 76.75747614 68.82360189 77.19294408 64 77 C62.89155081 73.67465243 63.15545644 71.37817425 64 68 C60.82990528 69.62078662 60.82990528 69.62078662 60.48828125 72.1640625 C60.40126953 73.38222656 60.40126953 73.38222656 60.3125 74.625 C60.24675781 75.44226563 60.18101562 76.25953125 60.11328125 77.1015625 C60.07589844 77.72804688 60.03851563 78.35453125 60 79 C56.14213034 80.81546807 53.23294004 81.09380477 49 81 C48.80438131 78.9174133 48.61880687 76.83388144 48.4375 74.75 C48.28087891 73.00976562 48.28087891 73.00976562 48.12109375 71.234375 C48.01587722 68.4240755 48.2260645 66.64048583 49 64 C49.03888349 61.66699067 49.0448635 59.33290199 49 57 C45.84508031 55.9483601 44.96644412 56.01967577 41.875 56.8125 C41.17117187 56.98394531 40.46734375 57.15539062 39.7421875 57.33203125 C37.79109437 57.85527292 37.79109437 57.85527292 37 60 C38.65 60.66 40.3 61.32 42 62 C42 62.99 42 63.98 42 65 C42.99 65.495 42.99 65.495 44 66 C40.47561693 68.18823357 37.72328781 68.19740036 33.625 68.08984375 C32.39265625 68.06986328 31.1603125 68.04988281 29.890625 68.02929688 C27.29677995 67.96809672 24.70302408 67.90299211 22.109375 67.83398438 C20.87703125 67.81529297 19.6446875 67.79660156 18.375 67.77734375 C17.24835938 67.74890381 16.12171875 67.72046387 14.9609375 67.69116211 C11.64361466 68.03717245 10.49043783 68.88649515 8 71 C5.3125 71.25 5.3125 71.25 3 71 C2.67 70.67 2.34 70.34 2 70 C1.67 84.85 1.34 99.7 1 115 C0.67 115 0.34 115 0 115 C0 77.05 0 39.1 0 0 Z " fill="#2C4663" transform="translate(163,174)"/>
<path d="M0 0 C3.31134267 2.63947604 5.51670088 5.2968824 6.44921875 9.44140625 C6.57421875 12.75390625 6.57421875 12.75390625 6.44921875 15.44140625 C-1.17884973 14.67427755 -8.28984766 12.19161561 -15.5703125 9.88085938 C-27.5356313 6.23694451 -35.04317406 7.50801476 -46.86328125 11.44140625 C-49.17025652 12.19636996 -51.47879215 12.94658679 -53.7890625 13.69140625 C-54.80009033 14.0265625 -55.81111816 14.36171875 -56.8527832 14.70703125 C-59.55078125 15.44140625 -59.55078125 15.44140625 -63.55078125 15.44140625 C-63.52417198 9.57406217 -62.76757762 5.31821766 -58.6171875 1.0078125 C-42.01741837 -11.57537733 -17.171298 -10.49211011 0 0 Z " fill="#ECEDCC" transform="translate(278.55078125,176.55859375)"/>
<path d="M0 0 C0.33 0 0.66 0 1 0 C1.33 19.8 1.66 39.6 2 60 C2.495 59.505 2.495 59.505 3 59 C5.875 58.75 5.875 58.75 9 59 C9.46317627 59.49411377 9.92635254 59.98822754 10.40356445 60.49731445 C12.54576219 62.51371254 13.7663708 62.3484133 16.66796875 62.29296875 C17.56064453 62.28330078 18.45332031 62.27363281 19.37304688 62.26367188 C20.76620117 62.2259668 20.76620117 62.2259668 22.1875 62.1875 C23.12787109 62.17396484 24.06824219 62.16042969 25.03710938 62.14648438 C27.35865038 62.11113096 29.67903653 62.06178674 32 62 C32.33 61.01 32.66 60.02 33 59 C32.0925 58.95875 31.185 58.9175 30.25 58.875 C27 58 27 58 24.5625 55.25 C23 52 23 52 23.125 49.25 C24.20626979 46.46959196 25.33883726 45.33058137 28 44 C28 44.66 28 45.32 28 46 C29.32 46 30.64 46 32 46 C32 45.34 32 44.68 32 44 C29.89646505 43.9189794 27.79204048 43.86080093 25.6875 43.8125 C24.51574219 43.77769531 23.34398437 43.74289063 22.13671875 43.70703125 C18.67193294 44.03064138 18.14504671 44.46015942 16 47 C12.9375 47.3125 12.9375 47.3125 10 47 C8 45 8 45 7.8046875 43.0546875 C7.90234375 40.02734375 7.90234375 40.02734375 8 37 C10.41021064 35.48245997 11.68335622 34.97683094 14.5625 35.1875 C17 36 17 36 18.34692383 37.51879883 C20.55622093 39.49838907 21.95084222 39.42275279 24.88671875 39.51171875 C26.2934082 39.56489258 26.2934082 39.56489258 27.72851562 39.61914062 C28.70498047 39.64169922 29.68144531 39.66425781 30.6875 39.6875 C32.16959961 39.73874023 32.16959961 39.73874023 33.68164062 39.79101562 C36.12098053 39.87350538 38.55996063 39.94265068 41 40 C41.28875 40.78375 41.5775 41.5675 41.875 42.375 C42.84912254 45.09671632 42.84912254 45.09671632 45 47 C44.67 47.33 44.34 47.66 44 48 C43.76807135 49.51469448 43.58784762 51.03754562 43.4375 52.5625 C43.35371094 53.38878906 43.26992187 54.21507812 43.18359375 55.06640625 C43.09271484 56.02353516 43.09271484 56.02353516 43 57 C42.195625 57.12375 41.39125 57.2475 40.5625 57.375 C39.716875 57.58125 38.87125 57.7875 38 58 C37.505 58.99 37.505 58.99 37 60 C38.65 60.66 40.3 61.32 42 62 C42 62.99 42 63.98 42 65 C42.99 65.495 42.99 65.495 44 66 C40.47561693 68.18823357 37.72328781 68.19740036 33.625 68.08984375 C32.39265625 68.06986328 31.1603125 68.04988281 29.890625 68.02929688 C27.29677995 67.96809672 24.70302408 67.90299211 22.109375 67.83398438 C20.87703125 67.81529297 19.6446875 67.79660156 18.375 67.77734375 C17.24835938 67.74890381 16.12171875 67.72046387 14.9609375 67.69116211 C11.64361466 68.03717245 10.49043783 68.88649515 8 71 C5.3125 71.25 5.3125 71.25 3 71 C2.67 70.67 2.34 70.34 2 70 C1.67 84.85 1.34 99.7 1 115 C0.67 115 0.34 115 0 115 C0 77.05 0 39.1 0 0 Z " fill="#2E4763" transform="translate(163,174)"/>
<path d="M0 0 C0.33 0 0.66 0 1 0 C1 19.8 1 39.6 1 60 C0.01 59.505 0.01 59.505 -1 59 C-3.95804573 58.66659529 -3.95804573 58.66659529 -7 59 C-7.42128174 59.49411377 -7.84256348 59.98822754 -8.27661133 60.49731445 C-10.91877518 62.80111365 -13.19303788 62.33808247 -16.63671875 62.29296875 C-17.93544922 62.28330078 -19.23417969 62.27363281 -20.57226562 62.26367188 C-21.94401639 62.23860585 -23.31576118 62.21321101 -24.6875 62.1875 C-26.07094924 62.1724502 -27.45441401 62.1587623 -28.83789062 62.14648438 C-32.22565207 62.11107223 -35.61263139 62.06168054 -39 62 C-39 59.03 -39 56.06 -39 53 C-36.625 52.8125 -36.625 52.8125 -34 53 C-33.34 53.99 -32.68 54.98 -32 56 C-28.45812169 56.33338596 -28.45812169 56.33338596 -25 56 C-23.58422523 54.81575674 -23.58422523 54.81575674 -23.9375 51.4375 C-23.958125 50.303125 -23.97875 49.16875 -24 48 C-26.79870027 46.60064987 -28.90498792 46.74734595 -32 47 C-33.62514468 48.45833358 -33.62514468 48.45833358 -35 50 C-36.32 50 -37.64 50 -39 50 C-39 47.36 -39 44.72 -39 42 C-31.74 42 -24.48 42 -17 42 C-16.67 42.99 -16.34 43.98 -16 45 C-12.85069107 46.04976964 -10.61185544 46.10131595 -7.3125 46.0625 C-5.82169922 46.04896484 -5.82169922 46.04896484 -4.30078125 46.03515625 C-3.54152344 46.02355469 -2.78226562 46.01195312 -2 46 C-1.67 46.99 -1.34 47.98 -1 49 C-0.67 32.83 -0.34 16.66 0 0 Z " fill="#233F5F" transform="translate(335,175)"/>
<path d="M0 0 C0.495 0.99 0.495 0.99 1 2 C1.66 2 2.32 2 3 2 C3.495 6.95 3.495 6.95 4 12 C3.195625 12.28875 2.39125 12.5775 1.5625 12.875 C-1.1326468 13.73262568 -1.1326468 13.73262568 -2 16 C-2.99 16 -3.98 16 -5 16 C-5 16.99 -5 17.98 -5 19 C-7.375 19.125 -7.375 19.125 -10 19 C-10.66 18.34 -11.32 17.68 -12 17 C-15.54178598 16.74996036 -15.54178598 16.74996036 -19 17 C-20.32890384 18.1036623 -20.32890384 18.1036623 -20.125 20.875 C-20.14376866 24.03212413 -20.14376866 24.03212413 -19 27 C-19.33 27.66 -19.66 28.32 -20 29 C-20.928125 28.814375 -21.85625 28.62875 -22.8125 28.4375 C-26.01343771 27.75876119 -26.01343771 27.75876119 -29 29 C-31.33333333 29 -33.66666667 29 -36 29 C-37.96822886 30.96822886 -37.66248381 34.34808709 -38 37 C-38.33 37 -38.66 37 -39 37 C-39.33 35.02 -39.66 33.04 -40 31 C-40.99 31 -41.98 31 -43 31 C-43 32.65 -43 34.3 -43 36 C-43.33 36 -43.66 36 -44 36 C-44 29.07 -44 22.14 -44 15 C-42.02 15 -40.04 15 -38 15 C-37.3596582 14.51104248 -36.71931641 14.02208496 -36.05957031 13.51831055 C-33.06773304 11.31273492 -30.72236107 11.66030897 -27.046875 11.70703125 C-26.05654266 11.71339851 -26.05654266 11.71339851 -25.04620361 11.71989441 C-22.94704609 11.73662565 -20.84886504 11.77426449 -18.75 11.8125 C-17.32293058 11.82755416 -15.89584604 11.84124129 -14.46875 11.85351562 C-10.97885183 11.88650999 -7.4895213 11.93825257 -4 12 C-4 11.34 -4 10.68 -4 10 C-4 9.01 -4 8.02 -4 7 C-5.98 6.67 -7.96 6.34 -10 6 C-9.5 4.125 -9.5 4.125 -8 2 C-5.34822355 1.01505446 -2.79452693 0.54087618 0 0 Z " fill="#254467" transform="translate(209,229)"/>
<path d="M0 0 C4.21749219 -0.07419134 8.43463811 -0.1286204 12.65258789 -0.16479492 C14.08722552 -0.17987589 15.52181708 -0.2003438 16.95629883 -0.22631836 C19.01915859 -0.26273437 21.08140858 -0.27973243 23.14453125 -0.29296875 C25.00621948 -0.31653442 25.00621948 -0.31653442 26.90551758 -0.34057617 C30.28724152 0.03161356 30.92186199 0.47369268 33 3 C35.82594567 3.27570202 37.45132831 3.27433584 40 2 C40 17.18 40 32.36 40 48 C39.67 48 39.34 48 39 48 C38.67 34.47 38.34 20.94 38 7 C35.7763932 5.7018576 35.7763932 5.7018576 32 6 C31.34 8.97 30.68 11.94 30 15 C28.35 15 26.7 15 25 15 C24.690625 15.639375 24.38125 16.27875 24.0625 16.9375 C23 19 23 19 22 20 C20.36527118 20.08700342 18.72685945 20.10701063 17.08984375 20.09765625 C16.10048828 20.09443359 15.11113281 20.09121094 14.09179688 20.08789062 C13.05087891 20.07951172 12.00996094 20.07113281 10.9375 20.0625 C9.89271484 20.05798828 8.84792969 20.05347656 7.77148438 20.04882812 C5.1809334 20.03699913 2.59049441 20.02051689 0 20 C0 17.36 0 14.72 0 12 C2.3125 11.8125 2.3125 11.8125 5 12 C5.474375 12.515625 5.94875 13.03125 6.4375 13.5625 C7.2109375 14.2740625 7.2109375 14.2740625 8 15 C11.83266292 14.85909916 11.83266292 14.85909916 15 13 C15.14636054 9.63370749 15.07193479 7.21580438 14 4 C10.56769552 4.26393501 10.56769552 4.26393501 7 5 C6.01 6.485 6.01 6.485 5 8 C2.375 8.1875 2.375 8.1875 0 8 C0 5.36 0 2.72 0 0 Z " fill="#244161" transform="translate(296,241)"/>
<path d="M0 0 C0.33 0 0.66 0 1 0 C1.33 14.19 1.66 28.38 2 43 C3.32 43 4.64 43 6 43 C6.33 43.66 6.66 44.32 7 45 C10.3 45 13.6 45 17 45 C17.33 44.01 17.66 43.02 18 42 C24.93 42 31.86 42 39 42 C39 42.33 39 42.66 39 43 C36.36 43 33.72 43 31 43 C31 43.66 31 44.32 31 45 C29.68 45 28.36 45 27 45 C26.67 45.33 26.34 45.66 26 46 C24.515 46.495 24.515 46.495 23 47 C23.31342642 50.44769066 23.67534985 52.55940337 25.75 55.375 C28.41011015 57.29619066 29.79064469 57.35659503 33 57 C32.67 58.65 32.34 60.3 32 62 C28.56265937 62.08703823 25.12560163 62.14040272 21.6875 62.1875 C20.71103516 62.21263672 19.73457031 62.23777344 18.72851562 62.26367188 C17.32182617 62.27817383 17.32182617 62.27817383 15.88671875 62.29296875 C15.02264404 62.3086792 14.15856934 62.32438965 13.26831055 62.34057617 C10.50566715 61.92577825 9.85137781 61.00008809 8 59 C4.90498792 58.74734595 2.79870027 58.60064987 0 60 C0 40.2 0 20.4 0 0 Z " fill="#254162" transform="translate(164,175)"/>
<path d="M0 0 C0.33 0 0.66 0 1 0 C1 37.95 1 75.9 1 115 C0.67 115 0.34 115 0 115 C-0.33 100.15 -0.66 85.3 -1 70 C-1.33 70.33 -1.66 70.66 -2 71 C-4.33944736 70.71269945 -6.6739143 70.38063221 -9 70 C-9.33 69.01 -9.66 68.02 -10 67 C-19.9 67 -29.8 67 -40 67 C-40 69.64 -40 72.28 -40 75 C-38.35 75 -36.7 75 -35 75 C-34.34 73.68 -33.68 72.36 -33 71 C-29.625 70.8125 -29.625 70.8125 -26 71 C-23.68638198 74.47042703 -23.48979272 75.91834173 -24 80 C-25.6875 81.9375 -25.6875 81.9375 -28 83 C-31.37036311 82.75925978 -32.58798021 82.41201979 -35 80 C-37.57061311 79.35232207 -37.57061311 79.35232207 -40 79 C-40 81.64 -40 84.28 -40 87 C-40.33 87 -40.66 87 -41 87 C-41 80.07 -41 73.14 -41 66 C-35.555 65.505 -35.555 65.505 -30 65 C-33.3 64.67 -36.6 64.34 -40 64 C-40 63.67 -40 63.34 -40 63 C-39.13721436 62.98541748 -38.27442871 62.97083496 -37.38549805 62.95581055 C-34.18150353 62.89472246 -30.97815375 62.82056451 -27.7746582 62.73754883 C-26.38870623 62.70431451 -25.00261939 62.67627774 -23.61645508 62.65356445 C-21.62293157 62.61999383 -19.62978259 62.56612 -17.63671875 62.51171875 C-16.43748779 62.48553467 -15.23825684 62.45935059 -14.00268555 62.43237305 C-10.70626175 61.95770303 -10.09002351 61.42155822 -8 59 C-4.875 58.75 -4.875 58.75 -2 59 C-1.67 59.33 -1.34 59.66 -1 60 C-0.67 40.2 -0.34 20.4 0 0 Z " fill="#BBC5C3" transform="translate(336,174)"/>
<path d="M0 0 C0.33 0 0.66 0 1 0 C1 2.64 1 5.28 1 8 C3.91517292 6.92598892 5.77810176 6.22189824 8 4 C12.05261287 3.65509678 13.54754176 3.69836118 17 6 C17.3125 9.5 17.3125 9.5 17 13 C15 15 15 15 11.375 15.125 C10.26125 15.08375 9.1475 15.0425 8 15 C7.34 13.68 6.68 12.36 6 11 C4.35 11 2.7 11 1 11 C1 14.3 1 17.6 1 21 C4.3 21 7.6 21 11 21 C11.33 21.66 11.66 22.32 12 23 C8.04 23 4.08 23 0 23 C0 25.97 0 28.94 0 32 C-2.475 32.495 -2.475 32.495 -5 33 C-5.66 35.31 -6.32 37.62 -7 40 C-8.98 40 -10.96 40 -13 40 C-13 39.67 -13 39.34 -13 39 C-11.35 39 -9.7 39 -8 39 C-8 35.37 -8 31.74 -8 28 C-8.99 27.67 -9.98 27.34 -11 27 C-13 22.78947368 -13 22.78947368 -13 21 C-10.69 21 -8.38 21 -6 21 C-6.04640625 20.35933594 -6.0928125 19.71867187 -6.140625 19.05859375 C-6.40857699 12.63731564 -5.60560143 9.30235504 -2 4 C-1.3197633 2.67353844 -0.64507739 1.34391123 0 0 Z " fill="#F1F1D2" transform="translate(295,217)"/>
<path d="M0 0 C0 3.96 0 7.92 0 12 C-0.99 12.495 -0.99 12.495 -2 13 C-2.33 13.66 -2.66 14.32 -3 15 C-3.99 15 -4.98 15 -6 15 C-6 15.66 -6 16.32 -6 17 C-3.69 17 -1.38 17 1 17 C1 20.3 1 23.6 1 27 C-2.50776784 28.60355101 -5.14354879 29.22036864 -9 29 C-9.33 27.02 -9.66 25.04 -10 23 C-11.98 22.67 -13.96 22.34 -16 22 C-16.09765625 15.84765625 -16.09765625 15.84765625 -16 14 C-15.67 13.67 -15.34 13.34 -15 13 C-15.66 12.34 -16.32 11.68 -17 11 C-17.125 7.875 -17.125 7.875 -17 5 C-15.0085944 4.61866701 -13.00720923 4.28674418 -11 4 C-10.67 4.33 -10.34 4.66 -10 5 C-9.8453125 4.0409375 -9.8453125 4.0409375 -9.6875 3.0625 C-9.460625 2.381875 -9.23375 1.70125 -9 1 C-6 0 -6 0 0 0 Z " fill="#2C4869" transform="translate(222,208)"/>
<path d="M0 0 C0.33 0 0.66 0 1 0 C1.33 19.8 1.66 39.6 2 60 C2.495 59.505 2.495 59.505 3 59 C5.875 58.75 5.875 58.75 9 59 C9.6338562 59.73440308 9.6338562 59.73440308 10.28051758 60.48364258 C12.89795082 62.79187456 15.20191835 62.43672311 18.63671875 62.51171875 C19.93544922 62.54716797 21.23417969 62.58261719 22.57226562 62.61914062 C23.94400517 62.6422405 25.3157501 62.6650229 26.6875 62.6875 C28.07099607 62.72067542 29.45446129 62.75516531 30.83789062 62.79101562 C34.22517883 62.87363241 37.61220357 62.94274058 41 63 C41 63.99 41 64.98 41 66 C31.43 66 21.86 66 12 66 C11.34 67.32 10.68 68.64 10 70 C6.4375 70.8125 6.4375 70.8125 3 71 C2.67 70.67 2.34 70.34 2 70 C1.67 84.85 1.34 99.7 1 115 C0.67 115 0.34 115 0 115 C0 77.05 0 39.1 0 0 Z " fill="#AEBBBE" transform="translate(163,174)"/>
<path d="M0 0 C0 6.93 0 13.86 0 21 C-4.29 21 -8.58 21 -13 21 C-13 14.4 -13 7.8 -13 1 C-9 0 -9 0 0 0 Z " fill="#F4F4D4" transform="translate(237,276)"/>
<path d="M0 0 C0.99 0.33 1.98 0.66 3 1 C2.34 1 1.68 1 1 1 C1 4.63 1 8.26 1 12 C1.66 12 2.32 12 3 12 C3.33 12.99 3.66 13.98 4 15 C3.67 15.66 3.34 16.32 3 17 C2.34 17 1.68 17 1 17 C1 20.96 1 24.92 1 29 C0.01 29 -0.98 29 -2 29 C-2.1546875 29.9590625 -2.1546875 29.9590625 -2.3125 30.9375 C-2.539375 31.618125 -2.76625 32.29875 -3 33 C-4.485 33.495 -4.485 33.495 -6 34 C-7.06671952 30.79984144 -6.94845472 29.11455706 -6.5625 25.8125 C-6.46066406 24.91144531 -6.35882813 24.01039063 -6.25390625 23.08203125 C-6.17011719 22.39496094 -6.08632812 21.70789063 -6 21 C-8.31 21 -10.62 21 -13 21 C-13.33 20.01 -13.66 19.02 -14 18 C-12.35 17.67 -10.7 17.34 -9 17 C-9.99 16.67 -10.98 16.34 -12 16 C-10.35 16 -8.7 16 -7 16 C-6.67 12.04 -6.34 8.08 -6 4 C-5.67 4 -5.34 4 -5 4 C-5 6.97 -5 9.94 -5 13 C-4.01 12.67 -3.02 12.34 -2 12 C-2.02320313 11.38511719 -2.04640625 10.77023438 -2.0703125 10.13671875 C-2.09738281 8.92435547 -2.09738281 8.92435547 -2.125 7.6875 C-2.14820313 6.88699219 -2.17140625 6.08648437 -2.1953125 5.26171875 C-2 3 -2 3 0 0 Z " fill="#234160" transform="translate(229,204)"/>
<path d="M0 0 C0.33 0 0.66 0 1 0 C1 2.97 1 5.94 1 9 C1.99 9.33 2.98 9.66 4 10 C5.6875 11.5625 5.6875 11.5625 7 13 C6.67 13.99 6.34 14.98 6 16 C5.34 16 4.68 16 4 16 C4 19.96 4 23.92 4 28 C4.66 28 5.32 28 6 28 C6.33 28.99 6.66 29.98 7 31 C6.34 31 5.68 31 5 31 C5 30.34 5 29.68 5 29 C2.69 28.34 0.38 27.68 -2 27 C-2.33 28.65 -2.66 30.3 -3 32 C-4.65 31.67 -6.3 31.34 -8 31 C-7.01 29.68 -6.02 28.36 -5 27 C-5.99 26.67 -6.98 26.34 -8 26 C-6.35 26 -4.7 26 -3 26 C-3.02320313 24.69804687 -3.04640625 23.39609375 -3.0703125 22.0546875 C-3.08907942 20.32813076 -3.10727863 18.60156779 -3.125 16.875 C-3.15013672 15.59109375 -3.15013672 15.59109375 -3.17578125 14.28125 C-3.21295326 9.44888835 -2.9489089 5.51858139 -1 1 C-0.67 0.67 -0.34 0.34 0 0 Z " fill="#F3F5D6" transform="translate(273,208)"/>
<path d="M0 0 C0.44448486 0.50120361 0.88896973 1.00240723 1.34692383 1.51879883 C3.55622093 3.49838907 4.95084222 3.42275279 7.88671875 3.51171875 C8.82451172 3.54716797 9.76230469 3.58261719 10.72851562 3.61914062 C11.70498047 3.64169922 12.68144531 3.66425781 13.6875 3.6875 C14.67556641 3.72166016 15.66363281 3.75582031 16.68164062 3.79101562 C19.12098053 3.87350538 21.55996063 3.94265068 24 4 C24 4.99 24 5.98 24 7 C23.34926514 7.01458252 22.69853027 7.02916504 22.02807617 7.04418945 C19.08061694 7.11864549 16.13429358 7.21531266 13.1875 7.3125 C12.16333984 7.33505859 11.13917969 7.35761719 10.08398438 7.38085938 C9.10107422 7.41630859 8.11816406 7.45175781 7.10546875 7.48828125 C6.19949951 7.51446533 5.29353027 7.54064941 4.36010742 7.56762695 C1.57147708 8.07850565 0.87539094 8.96713094 -1 11 C-4.0625 11.3125 -4.0625 11.3125 -7 11 C-9 9 -9 9 -9.1953125 7.0546875 C-9.13020833 5.03645833 -9.06510417 3.01822917 -9 1 C-5.66508718 -1.09975992 -3.74008367 -1.24669456 0 0 Z " fill="#D6E2D8" transform="translate(180,210)"/>
<path d="M0 0 C3 0.375 3 0.375 4.9375 1.4375 C6.64787795 4.55642449 5.80513863 7.03057801 5 10.375 C2.20129973 11.77435013 0.09501208 11.62765405 -3 11.375 C-3.45286377 10.88539795 -3.90572754 10.3957959 -4.37231445 9.89135742 C-6.6029331 7.81330547 -8.09225856 7.95036825 -11.10546875 7.86328125 C-12.08837891 7.82783203 -13.07128906 7.79238281 -14.08398438 7.75585938 C-15.10814453 7.73330078 -16.13230469 7.71074219 -17.1875 7.6875 C-18.22326172 7.65333984 -19.25902344 7.61917969 -20.32617188 7.58398438 C-22.8840066 7.50147358 -25.44149723 7.43233428 -28 7.375 C-28 6.385 -28 5.395 -28 4.375 C-27.34926514 4.36041748 -26.69853027 4.34583496 -26.02807617 4.33081055 C-23.08061694 4.25635451 -20.13429358 4.15968734 -17.1875 4.0625 C-16.16333984 4.03994141 -15.13917969 4.01738281 -14.08398438 3.99414062 C-13.10107422 3.95869141 -12.11816406 3.92324219 -11.10546875 3.88671875 C-10.19949951 3.86053467 -9.29353027 3.83435059 -8.36010742 3.80737305 C-4.6087597 3.12012397 -3.89612122 0.48701515 0 0 Z " fill="#E3EDE1" transform="translate(324,256.625)"/>
<path d="M0 0 C1.670625 0.061875 1.670625 0.061875 3.375 0.125 C4.035 1.445 4.695 2.765 5.375 4.125 C12.635 4.125 19.895 4.125 27.375 4.125 C27.375 5.115 27.375 6.105 27.375 7.125 C20.115 7.125 12.855 7.125 5.375 7.125 C4.715 8.445 4.055 9.765 3.375 11.125 C0 11.25 0 11.25 -3.625 11.125 C-5.625 9.125 -5.625 9.125 -5.875 5.625 C-5.52784563 0.76483889 -4.87441969 0.16808344 0 0 Z " fill="#D8E5D8" transform="translate(176.625,256.875)"/>
<path d="M0 0 C1.32 0 2.64 0 4 0 C4 4.29 4 8.58 4 13 C4.66 13 5.32 13 6 13 C6 10.03 6 7.06 6 4 C6.66 4 7.32 4 8 4 C9.51340155 8.2038932 8.72030914 9.95783601 8 15 C0.74 15 -6.52 15 -14 15 C-14 12.36 -14 9.72 -14 7 C-11.6875 6.8125 -11.6875 6.8125 -9 7 C-8.525625 7.515625 -8.05125 8.03125 -7.5625 8.5625 C-6.7890625 9.2740625 -6.7890625 9.2740625 -6 10 C-2.16733708 9.85909916 -2.16733708 9.85909916 1 8 C1.24733137 3.85723125 1.24733137 3.85723125 0 0 Z " fill="#324A61" transform="translate(310,246)"/>
<path d="M0 0 C11.10487036 2.67533216 22.0653814 5.69796171 33 9 C32.505 4.545 32.505 4.545 32 0 C32.66 0 33.32 0 34 0 C34 3.3 34 6.6 34 10 C24.04177548 13.31940817 16.51620005 10.27299608 7 7 C5.9790625 6.66742188 4.958125 6.33484375 3.90625 5.9921875 C1.93081146 5.34829456 -0.03615141 4.67842042 -2 4 C-1.34 3.67 -0.68 3.34 0 3 C0 2.01 0 1.02 0 0 Z " fill="#415666" transform="translate(252,183)"/>
<path d="M0 0 C0.33 0 0.66 0 1 0 C1 35.97 1 71.94 1 109 C5.62 109 10.24 109 15 109 C14.505 109.99 14.505 109.99 14 111 C11.890625 111.51953125 11.890625 111.51953125 9.25 111.8125 C7.95835937 111.97685547 7.95835937 111.97685547 6.640625 112.14453125 C3.05613973 111.94833901 1.69063547 111.43225474 -1 109 C-1.74112025 105.56200302 -1.57072145 102.1553131 -1.47583008 98.65356445 C-1.46680664 97.58998718 -1.4577832 96.52640991 -1.44848633 95.43060303 C-1.4126548 91.90742341 -1.34120493 88.38589918 -1.26953125 84.86328125 C-1.23777608 82.42378951 -1.20823752 79.98426799 -1.18083191 77.54472351 C-1.10265698 71.11792961 -0.99429796 64.69198208 -0.87976074 58.26574707 C-0.76823136 51.71061268 -0.68509621 45.15512596 -0.59960938 38.59960938 C-0.42761248 25.73257398 -0.22470645 12.86621725 0 0 Z " fill="#2A4051" transform="translate(249,188)"/>
<path d="M0 0 C4.09194819 0.09299882 5.72203532 0.75292028 8.8125 3.5 C11.69875355 7.2928332 11.88659914 11.36087391 12 16 C7.01155691 15.3900874 2.39844654 14.36525565 -2.4375 12.9375 C-3.67371094 12.57527344 -4.90992188 12.21304688 -6.18359375 11.83984375 C-7.11300781 11.56269531 -8.04242188 11.28554687 -9 11 C-9 10.67 -9 10.34 -9 10 C-1.57142857 9.85714286 -1.57142857 9.85714286 2 11 C2.33 10.01 2.66 9.02 3 8 C3.66 8 4.32 8 5 8 C5 7.34 5 6.68 5 6 C3.02 6 1.04 6 -1 6 C-1.042721 4.33388095 -1.04063832 2.66617115 -1 1 C-0.67 0.67 -0.34 0.34 0 0 Z " fill="#E8E7C0" transform="translate(273,176)"/>
<path d="M0 0 C3.0625 0.25 3.0625 0.25 6.0625 2.25 C6.375 5.75 6.375 5.75 6.0625 9.25 C4.0625 11.25 4.0625 11.25 0.4375 11.375 C-0.67625 11.33375 -1.79 11.2925 -2.9375 11.25 C-3.5975 9.93 -4.2575 8.61 -4.9375 7.25 C-6.5875 7.25 -8.2375 7.25 -9.9375 7.25 C-9.9375 10.22 -9.9375 13.19 -9.9375 16.25 C-10.2675 16.25 -10.5975 16.25 -10.9375 16.25 C-10.96448189 14.62509046 -10.98388757 13.00005367 -11 11.375 C-11.01160156 10.47007812 -11.02320313 9.56515625 -11.03515625 8.6328125 C-10.9375 6.25 -10.9375 6.25 -9.9375 4.25 C-8.27677151 3.56867549 -6.609733 2.90257873 -4.9375 2.25 C-2.9375 0.25 -2.9375 0.25 0 0 Z " fill="#D6DFD3" transform="translate(305.9375,220.75)"/>
<path d="M0 0 C3.82337029 0.33538336 4.24710983 0.55608313 6.5625 3.3125 C8.66582891 4.02697643 8.66582891 4.02697643 10.5625 4.3125 C10.5625 5.3025 10.5625 6.2925 10.5625 7.3125 C9.799375 7.580625 9.03625 7.84875 8.25 8.125 C5.55751525 9.10163749 5.55751525 9.10163749 4.0625 10.9375 C2.5625 12.3125 2.5625 12.3125 0.0625 12.75 C-2.4375 12.3125 -2.4375 12.3125 -4.25 10.6875 C-5.75173956 7.68402087 -5.79814764 5.63045832 -5.4375 2.3125 C-3.4375 0.3125 -3.4375 0.3125 0 0 Z " fill="#CCDAD8" transform="translate(193.4375,244.6875)"/>
<path d="M0 0 C1.625 1.4375 1.625 1.4375 3 3 C5.10332891 3.71447643 5.10332891 3.71447643 7 4 C7 4.99 7 5.98 7 7 C6.236875 7.268125 5.47375 7.53625 4.6875 7.8125 C1.97960882 8.7765466 1.97960882 8.7765466 0.5625 10.6875 C-1 12 -1 12 -4.0625 11.875 C-7 11 -7 11 -9 8 C-8.75 4.375 -8.75 4.375 -8 1 C-5.20129973 -0.39935013 -3.09501208 -0.25265405 0 0 Z " fill="#D6E2D5" transform="translate(197,221)"/>
<path d="M0 0 C0.33 0 0.66 0 1 0 C1.33 19.8 1.66 39.6 2 60 C2.495 59.505 2.495 59.505 3 59 C4.99958364 58.95919217 7.00045254 58.95745644 9 59 C10.60031344 62.20062687 9.03173691 64.72271806 8 68 C6.35 67.67 4.7 67.34 3 67 C2.67 66.01 2.34 65.02 2 64 C1.34 64 0.68 64 0 64 C0 42.88 0 21.76 0 0 Z " fill="#A4B0B8" transform="translate(163,174)"/>
<path d="M0 0 C3.125 0.3125 3.125 0.3125 5.0625 1.9375 C6.48989363 5.12814458 6.06343266 6.99189213 5.125 10.3125 C3.125 12.3125 3.125 12.3125 0.125 12.5 C-2.875 12.3125 -2.875 12.3125 -4.875 11.3125 C-4.545 9.3325 -4.215 7.3525 -3.875 5.3125 C-4.535 5.3125 -5.195 5.3125 -5.875 5.3125 C-3.48787935 0.37911732 -3.48787935 0.37911732 0 0 Z " fill="#DAE3E0" transform="translate(323.875,208.6875)"/>
<path d="M0 0 C4.95 0.99 4.95 0.99 10 2 C10 5.63 10 9.26 10 13 C6.7 12.34 3.4 11.68 0 11 C0 7.37 0 3.74 0 0 Z " fill="#52626A" transform="translate(260,203)"/>
<path d="M0 0 C3.3 0.33 6.6 0.66 10 1 C10 4.63 10 8.26 10 12 C6.7 11.67 3.4 11.34 0 11 C0 7.37 0 3.74 0 0 Z " fill="#4A5E69" transform="translate(277,225)"/>
<path d="M0 0 C8.875 0.875 8.875 0.875 10 2 C10.07205511 3.68608966 10.08386068 5.37500659 10.0625 7.0625 C10.05347656 7.98160156 10.04445313 8.90070313 10.03515625 9.84765625 C10.02355469 10.55792969 10.01195312 11.26820313 10 12 C2.25 11.125 2.25 11.125 0 10 C0 6.7 0 3.4 0 0 Z " fill="#21405B" transform="translate(260,257)"/>
<path d="M0 0 C7.75 0.875 7.75 0.875 10 2 C10 5.3 10 8.6 10 12 C5.69986566 12.19546065 3.99110319 11.9955516 0 10 C0 6.7 0 3.4 0 0 Z " fill="#445867" transform="translate(277,243)"/>
<path d="M0 0 C4.95 0.99 4.95 0.99 10 2 C10 5.3 10 8.6 10 12 C1.125 11.125 1.125 11.125 0 10 C-0.14257189 6.66381769 -0.04228157 3.34024394 0 0 Z " fill="#475966" transform="translate(260,239)"/>
<path d="M0 0 C1.65 0.33 3.3 0.66 5 1 C5 2.65 5 4.3 5 6 C5.99 6 6.98 6 8 6 C8 21.51 8 37.02 8 53 C7.67 53 7.34 53 7 53 C6.67 38.15 6.34 23.3 6 8 C5.67 8.33 5.34 8.66 5 9 C2.66055264 8.71269945 0.3260857 8.38063221 -2 8 C-2.33 7.01 -2.66 6.02 -3 5 C-2.34 5 -1.68 5 -1 5 C-0.67 3.35 -0.34 1.7 0 0 Z " fill="#A6B0B5" transform="translate(329,236)"/>
<path d="M0 0 C3.3 0.33 6.6 0.66 10 1 C10 4.63 10 8.26 10 12 C6.7 11.34 3.4 10.68 0 10 C0 6.7 0 3.4 0 0 Z " fill="#29435D" transform="translate(277,208)"/>
<path d="M0 0 C0 3.3 0 6.6 0 10 C-3.61973402 11.31626692 -6.09567131 12 -10 12 C-10 8.7 -10 5.4 -10 2 C-6.00889681 0.0044484 -4.30013434 -0.19546065 0 0 Z " fill="#F6F5DA" transform="translate(240,239)"/>
<path d="M0 0 C4.95 0.99 4.95 0.99 10 2 C10 5.3 10 8.6 10 12 C6.7 11.67 3.4 11.34 0 11 C0 7.37 0 3.74 0 0 Z " fill="#354D64" transform="translate(260,221)"/>
<path d="M0 0 C0 3.3 0 6.6 0 10 C-3.3 10.66 -6.6 11.32 -10 12 C-10 8.7 -10 5.4 -10 2 C-6.00889681 0.0044484 -4.30013434 -0.19546065 0 0 Z " fill="#EEF1D9" transform="translate(240,257)"/>
<path d="M0 0 C0 3.3 0 6.6 0 10 C-2.97 10.66 -5.94 11.32 -9 12 C-9 8.37 -9 4.74 -9 1 C-6.04335481 -0.4783226 -3.25770263 -0.06032783 0 0 Z " fill="#D5DDD2" transform="translate(239,204)"/>
<path d="M0 0 C0 3.63 0 7.26 0 11 C-4.455 11.495 -4.455 11.495 -9 12 C-9 8.7 -9 5.4 -9 2 C-2.25 0 -2.25 0 0 0 Z " fill="#D8E2D5" transform="translate(222,243)"/>
<path d="M0 0 C0 3.3 0 6.6 0 10 C-2.97 10.66 -5.94 11.32 -9 12 C-9 8.37 -9 4.74 -9 1 C-5.8035914 -0.06546953 -3.34252724 -0.07427838 0 0 Z " fill="#E1E7D4" transform="translate(222,208)"/>
<path d="M0 0 C0 3.3 0 6.6 0 10 C-4.455 10.495 -4.455 10.495 -9 11 C-9 7.7 -9 4.4 -9 1 C-5.8035914 -0.06546953 -3.34252724 -0.07427838 0 0 Z " fill="#EEF1D8" transform="translate(239,222)"/>
<path d="M0 0 C0 3.3 0 6.6 0 10 C-4.455 10.495 -4.455 10.495 -9 11 C-9 7.7 -9 4.4 -9 1 C-5.8035914 -0.06546953 -3.34252724 -0.07427838 0 0 Z " fill="#DEE5D0" transform="translate(222,226)"/>
<path d="M0 0 C0.99 0.495 0.99 0.495 2 1 C4.3329866 1.04022391 6.66706666 1.04320247 9 1 C9 1.66 9 2.32 9 3 C10.65 3 12.3 3 14 3 C14.33 2.34 14.66 1.68 15 1 C16.98 1 18.96 1 21 1 C19.8905928 4.48670834 18.73662334 7.77484237 17 11 C16.67 11 16.34 11 16 11 C15.87625 10.195625 15.7525 9.39125 15.625 8.5625 C15.41875 7.716875 15.2125 6.87125 15 6 C12.20129973 4.60064987 10.09501208 4.74734595 7 5 C5.37485532 6.45833358 5.37485532 6.45833358 4 8 C2.68 8 1.36 8 0 8 C0 5.36 0 2.72 0 0 Z " fill="#30495F" transform="translate(296,217)"/>
<path d="M0 0 C0.99 0 1.98 0 3 0 C3 6.93 3 13.86 3 21 C-1.29 21 -5.58 21 -10 21 C-10 14.73 -10 8.46 -10 2 C-9.01 2 -8.02 2 -7 2 C-7.33 2.99 -7.66 3.98 -8 5 C-8.22560676 7.39254576 -8.40848595 9.78928123 -8.5625 12.1875 C-8.64628906 13.45980469 -8.73007813 14.73210937 -8.81640625 16.04296875 C-8.87699219 17.01878906 -8.93757812 17.99460937 -9 19 C-5.7 19 -2.4 19 1 19 C0.67 12.73 0.34 6.46 0 0 Z " fill="#C8D5D0" transform="translate(234,276)"/>
<path d="M0 0 C3.125 0.25 3.125 0.25 5.0625 1.3125 C6.74176907 4.37469653 5.81121125 6.94370941 5.125 10.25 C2.485 9.59 -0.155 8.93 -2.875 8.25 C-3.25563221 5.9239143 -3.58769945 3.58944736 -3.875 1.25 C-2.875 0.25 -2.875 0.25 0 0 Z " fill="#D3DED8" transform="translate(323.875,256.75)"/>
<path d="M0 0 C0.99 0.33 1.98 0.66 3 1 C3 3.64 3 6.28 3 9 C2.67 8.01 2.34 7.02 2 6 C0.02 6.33 -1.96 6.66 -4 7 C-3.67 8.98 -3.34 10.96 -3 13 C-6.44450737 15.29633824 -8.93812283 15.54016485 -13 16 C-11.25 13.5 -11.25 13.5 -9 11 C-7.68 11 -6.36 11 -5 11 C-5 10.01 -5 9.02 -5 8 C-6.32 7.67 -7.64 7.34 -9 7 C-7.68 7 -6.36 7 -5 7 C-5 6.01 -5 5.02 -5 4 C-4.01 4 -3.02 4 -2 4 C-1.34 2.68 -0.68 1.36 0 0 Z " fill="#264469" transform="translate(209,241)"/>
<path d="M0 0 C9.57 0 19.14 0 29 0 C29 0.99 29 1.98 29 3 C22.73 3 16.46 3 10 3 C10 2.34 10 1.68 10 1 C6.7 1 3.4 1 0 1 C0 0.67 0 0.34 0 0 Z " fill="#D8E2DA" transform="translate(175,237)"/>
<path d="M0 0 C7.26 0 14.52 0 22 0 C22 0.99 22 1.98 22 3 C14.74 3 7.48 3 0 3 C0 2.01 0 1.02 0 0 Z " fill="#E4EFE2" transform="translate(182,261)"/>
<path d="M0 0 C2.375 -0.1875 2.375 -0.1875 5 0 C5.66 0.99 6.32 1.98 7 3 C10.06556598 3.73343428 10.06556598 3.73343428 13 4 C13 4.66 13 5.32 13 6 C12.2575 6.12375 11.515 6.2475 10.75 6.375 C8.04077127 6.87044737 8.04077127 6.87044737 5.9375 8.0625 C4 9 4 9 0 9 C0 6.03 0 3.06 0 0 Z " fill="#384F65" transform="translate(296,228)"/>
<path d="M0 0 C0.33 0 0.66 0 1 0 C1.125 3.375 1.125 3.375 1 7 C-1 9 -1 9 -4.5 9.3125 C-6.2325 9.1578125 -6.2325 9.1578125 -8 9 C-8.66 8.01 -9.32 7.02 -10 6 C-9.34 6 -8.68 6 -8 6 C-7.67 4.35 -7.34 2.7 -7 1 C-5.33388095 0.957279 -3.66617115 0.95936168 -2 1 C-1.67 1.33 -1.34 1.66 -1 2 C-0.67 1.34 -0.34 0.68 0 0 Z " fill="#C0CFC9" transform="translate(311,223)"/>
<path d="M0 0 C0.99 0 1.98 0 3 0 C4.27109175 4.66066975 3.75467305 6.71728868 3 12 C9.93 12 16.86 12 24 12 C24 12.66 24 13.32 24 14 C16.74 14 9.48 14 2 14 C1.67 10.7 1.34 7.4 1 4 C0.67 2.68 0.34 1.36 0 0 Z " fill="#586874" transform="translate(294,200)"/>
<path d="M0 0 C1.93786085 0.47770523 3.87527674 0.95721571 5.8125 1.4375 C7.43091797 1.83775391 7.43091797 1.83775391 9.08203125 2.24609375 C11.0740843 2.76077412 13.04811524 3.34937175 15 4 C14.67 4.99 14.34 5.98 14 7 C8.06997733 7.37851209 3.52760359 6.10575375 -2 4 C-1.34 3.67 -0.68 3.34 0 3 C0 2.01 0 1.02 0 0 Z " fill="#33485E" transform="translate(252,183)"/>
<path d="M0 0 C9.24 0 18.48 0 28 0 C28 0.33 28 0.66 28 1 C25.69 1 23.38 1 21 1 C21 1.66 21 2.32 21 3 C19.88625 3.45375 18.7725 3.9075 17.625 4.375 C14.03800992 5.72465986 14.03800992 5.72465986 12 8 C12 7.34 12 6.68 12 6 C11.34 5.67 10.68 5.34 10 5 C10.33 4.34 10.66 3.68 11 3 C9.33657163 1.33657163 7.2174291 1.63951903 4.9375 1.4375 C4.01839844 1.35371094 3.09929687 1.26992187 2.15234375 1.18359375 C1.08693359 1.09271484 1.08693359 1.09271484 0 1 C0 0.67 0 0.34 0 0 Z " fill="#263F58" transform="translate(175,241)"/>
<path d="M0 0 C2.71631546 0.90543849 5.34771188 1.92474806 8 3 C8 3.99 8 4.98 8 6 C8.66 6.33 9.32 6.66 10 7 C6.42609317 9.24711309 3.64422678 9.16564667 -0.515625 8.9765625 C-1.76601562 8.925 -3.01640625 8.8734375 -4.3046875 8.8203125 C-5.60664063 8.75585938 -6.90859375 8.69140625 -8.25 8.625 C-9.56742188 8.56828125 -10.88484375 8.5115625 -12.2421875 8.453125 C-15.49534406 8.31168341 -18.74772552 8.16026986 -22 8 C-22 7.67 -22 7.34 -22 7 C-12.43 7 -2.86 7 7 7 C7 6.01 7 5.02 7 4 C4.36 4 1.72 4 -1 4 C-1 1 -1 1 0 0 Z " fill="#536D7D" transform="translate(197,233)"/>
<path d="M0 0 C0.99 0 1.98 0 3 0 C3 6.27 3 12.54 3 19 C9.6 19 16.2 19 23 19 C23 19.33 23 19.66 23 20 C19.91826331 20.25561761 16.83497376 20.47482039 13.75 20.6875 C12.87730469 20.76033203 12.00460937 20.83316406 11.10546875 20.90820312 C7.53552085 21.13984097 4.73969281 21.26106805 1.34375 20.0625 C-0.90344169 16.61332205 0.10757768 13.22806401 0.75 9.3125 C0.92015625 8.11657227 0.92015625 8.11657227 1.09375 6.89648438 C1.37662676 4.92813358 1.68582429 2.96359816 2 1 C1.34 0.67 0.68 0.34 0 0 Z " fill="#273F52" transform="translate(273,278)"/>
<path d="M0 0 C2.04219706 1.69179328 2.91793306 2.63727666 3.51171875 5.26171875 C3.56972656 6.06222656 3.62773437 6.86273438 3.6875 7.6875 C3.78611328 8.89986328 3.78611328 8.89986328 3.88671875 10.13671875 C3.92410156 10.75160156 3.96148437 11.36648437 4 12 C-0.98844309 11.3900874 -5.60155346 10.36525565 -10.4375 8.9375 C-11.67371094 8.57527344 -12.90992188 8.21304688 -14.18359375 7.83984375 C-15.11300781 7.56269531 -16.04242188 7.28554687 -17 7 C-17 6.67 -17 6.34 -17 6 C-10.32508169 5.54489193 -4.40625443 7.2327574 2 9 C1.01 6.36 0.02 3.72 -1 1 C-0.67 0.67 -0.34 0.34 0 0 Z " fill="#CED7C4" transform="translate(281,180)"/>
<path d="M0 0 C0.66 0.33 1.32 0.66 2 1 C2 2.66666667 2 4.33333333 2 6 C0.35 6 -1.3 6 -3 6 C-3.33 8.31 -3.66 10.62 -4 13 C-2.68 13.33 -1.36 13.66 0 14 C-3 16 -3 16 -7 16 C-6.97061497 9.52060152 -5.80173678 5.90956687 -1.27734375 1.21484375 C-0.64505859 0.61349609 -0.64505859 0.61349609 0 0 Z " fill="#D0D7C1" transform="translate(222,176)"/>
<path d="M0 0 C2.31 0 4.62 0 7 0 C7.33 0.66 7.66 1.32 8 2 C10.52733235 2.65555119 10.52733235 2.65555119 13 3 C13 3.33 13 3.66 13 4 C11.865625 4.28875 10.73125 4.5775 9.5625 4.875 C8.386875 5.24625 7.21125 5.6175 6 6 C5.67 6.66 5.34 7.32 5 8 C3.35 8 1.7 8 0 8 C0 5.36 0 2.72 0 0 Z " fill="#314B5F" transform="translate(296,241)"/>
<path d="M0 0 C0 3.3 0 6.6 0 10 C-0.33 10 -0.66 10 -1 10 C-1 7.36 -1 4.72 -1 2 C-3.31 2.33 -5.62 2.66 -8 3 C-8 5.31 -8 7.62 -8 10 C-6.35 10 -4.7 10 -3 10 C-6 12 -6 12 -10 12 C-10 8.7 -10 5.4 -10 2 C-6.00889681 0.0044484 -4.30013434 -0.19546065 0 0 Z " fill="#C1CFC6" transform="translate(240,239)"/>
<path d="M0 0 C4.455 0.99 4.455 0.99 9 2 C9 3.98 9 5.96 9 8 C6.03 7.67 3.06 7.34 0 7 C0.99 5.68 1.98 4.36 3 3 C2.01 2.67 1.02 2.34 0 2 C0 1.34 0 0.68 0 0 Z " fill="#E5ECD7" transform="translate(277,218)"/>
<path d="M0 0 C7.92 0 15.84 0 24 0 C23.67 1.32 23.34 2.64 23 4 C22.67 3.34 22.34 2.68 22 2 C14.74 2 7.48 2 0 2 C0 1.34 0 0.68 0 0 Z " fill="#ECF1E0" transform="translate(296,214)"/>
<path d="M0 0 C0.99 0 1.98 0 3 0 C2.67 2.97 2.34 5.94 2 9 C4.31 9 6.62 9 9 9 C9 6.69 9 4.38 9 2 C9.33 2 9.66 2 10 2 C10 5.3 10 8.6 10 12 C2.25 11.125 2.25 11.125 0 10 C0 6.7 0 3.4 0 0 Z " fill="#50606D" transform="translate(260,257)"/>
<path d="M0 0 C0.33 0 0.66 0 1 0 C1 3.63 1 7.26 1 11 C-0.65 11.33 -2.3 11.66 -4 12 C-4 12.66 -4 13.32 -4 14 C-3.34 14.66 -2.68 15.32 -2 16 C-5.47823115 17.15941038 -7.45895578 16.70820884 -11 16 C-10 13 -10 13 -8 11 C-8 10.34 -8 9.68 -8 9 C-5.36 9.33 -2.72 9.66 0 10 C0 6.7 0 3.4 0 0 Z " fill="#E1E8D2" transform="translate(287,227)"/>
<path d="M0 0 C1.4540625 0.0309375 1.4540625 0.0309375 2.9375 0.0625 C2.9375 2.7025 2.9375 5.3425 2.9375 8.0625 C0.9575 8.0625 -1.0225 8.0625 -3.0625 8.0625 C-3.44313221 5.7364143 -3.77519945 3.40194736 -4.0625 1.0625 C-3.0625 0.0625 -3.0625 0.0625 0 0 Z " fill="#24405E" transform="translate(266.0625,204.9375)"/>
<path d="M0 0 C3.14737182 0.69941596 6.02588876 1.76078698 9 3 C9 3.99 9 4.98 9 6 C8.21625 6.28875 7.4325 6.5775 6.625 6.875 C3.90328368 7.84912254 3.90328368 7.84912254 2 10 C-0.625 10.125 -0.625 10.125 -3 10 C-3 9.34 -3 8.68 -3 8 C-1.35 7.67 0.3 7.34 2 7 C1.34 4.69 0.68 2.38 0 0 Z " fill="#E0EBDF" transform="translate(195,246)"/>
<path d="M0 0 C2.31 0 4.62 0 7 0 C7 3.3 7 6.6 7 10 C4 9 4 9 1 7 C0.3125 3.375 0.3125 3.375 0 0 Z " fill="#254060" transform="translate(279,227)"/>
<path d="M0 0 C0 3.3 0 6.6 0 10 C-1.98 10.33 -3.96 10.66 -6 11 C-6.33 10.01 -6.66 9.02 -7 8 C-6.67 7.34 -6.34 6.68 -6 6 C-5.34 6 -4.68 6 -4 6 C-4 5.01 -4 4.02 -4 3 C-4.66 2.34 -5.32 1.68 -6 1 C-3 0 -3 0 0 0 Z " fill="#F2F5E3" transform="translate(239,204)"/>
<path d="M0 0 C0.66 0 1.32 0 2 0 C4.06723714 3.10085571 4.24497423 3.72931681 4.1953125 7.23046875 C4.18886719 8.03291016 4.18242187 8.83535156 4.17578125 9.66210938 C4.15902344 10.49548828 4.14226562 11.32886719 4.125 12.1875 C4.11597656 13.03248047 4.10695313 13.87746094 4.09765625 14.74804688 C4.07410703 16.83215243 4.03823647 18.91611217 4 21 C12.415 20.505 12.415 20.505 21 20 C21 20.66 21 21.32 21 22 C15.06 22 9.12 22 3 22 C2.67 16.06 2.34 10.12 2 4 C1.01 3.67 0.02 3.34 -1 3 C-0.67 2.01 -0.34 1.02 0 0 Z " fill="#EBF3E0" transform="translate(274,274)"/>
<path d="M0 0 C0.33 0 0.66 0 1 0 C1 3.3 1 6.6 1 10 C-2.3 10.66 -5.6 11.32 -9 12 C-9 8.7 -9 5.4 -9 2 C-8.34 2 -7.68 2 -7 2 C-6.01879536 5.05263664 -6.01879536 6.94736336 -7 10 C-5.35 9.67 -3.7 9.34 -2 9 C-1.34 6.03 -0.68 3.06 0 0 Z " fill="#C9D6CB" transform="translate(239,257)"/>
<path d="M0 0 C2.64 0 5.28 0 8 0 C7.67 1.65 7.34 3.3 7 5 C2.38 5 -2.24 5 -7 5 C-7 4.34 -7 3.68 -7 3 C-4.69 3 -2.38 3 0 3 C0 2.01 0 1.02 0 0 Z " fill="#263E57" transform="translate(189,232)"/>
<path d="M0 0 C1.98 0 3.96 0 6 0 C4.8905928 3.48670834 3.73662334 6.77484237 2 10 C1.67 10 1.34 10 1 10 C0.67 8.35 0.34 6.7 0 5 C-2.31 4.34 -4.62 3.68 -7 3 C-7 2.67 -7 2.34 -7 2 C-5.02 2 -3.04 2 -1 2 C-0.67 1.34 -0.34 0.68 0 0 Z " fill="#37516E" transform="translate(311,218)"/>
<path d="M0 0 C3.46941546 0.45822468 6.67395049 0.89131683 10 2 C10 4.31 10 6.62 10 9 C7.69 8.67 5.38 8.34 3 8 C3.66 7.34 4.32 6.68 5 6 C5.99 6 6.98 6 8 6 C7.67 5.34 7.34 4.68 7 4 C5.02 4 3.04 4 1 4 C0.67 2.68 0.34 1.36 0 0 Z " fill="#E7EBD7" transform="translate(260,214)"/>
<path d="M0 0 C0.66 2.97 1.32 5.94 2 9 C-1.07366722 7.97544426 -3.38369776 6.90919353 -6 5 C-6 3.68 -6 2.36 -6 1 C-3 0 -3 0 0 0 Z " fill="#20415F" transform="translate(211,247)"/>
<path d="M0 0 C0.66 0.33 1.32 0.66 2 1 C2 3.31 2 5.62 2 8 C-1 9 -1 9 -4 8 C-4 5.69 -4 3.38 -4 1 C-2.68 1.33 -1.36 1.66 0 2 C0 1.34 0 0.68 0 0 Z " fill="#254463" transform="translate(266,240)"/>
<path d="M0 0 C0.33 0 0.66 0 1 0 C1.33 2.31 1.66 4.62 2 7 C2.71027344 7.04898438 3.42054688 7.09796875 4.15234375 7.1484375 C5.07144531 7.22320312 5.99054688 7.29796875 6.9375 7.375 C8.31228516 7.47941406 8.31228516 7.47941406 9.71484375 7.5859375 C10.84599609 7.79089844 10.84599609 7.79089844 12 8 C12.33 8.66 12.66 9.32 13 10 C9.04 10 5.08 10 1 10 C1 12.31 1 14.62 1 17 C0.67 17 0.34 17 0 17 C0 11.39 0 5.78 0 0 Z " fill="#F0F6E3" transform="translate(294,230)"/>
<path d="M0 0 C3.37431362 1.23892709 6.69199751 2.59442582 10 4 C9.67 4.66 9.34 5.32 9 6 C8.21625 5.71125 7.4325 5.4225 6.625 5.125 C2.79517077 3.93643231 -0.97668326 3.22363449 -4.92578125 2.5625 C-5.61027344 2.376875 -6.29476563 2.19125 -7 2 C-7.33 1.34 -7.66 0.68 -8 0 C-4.99552601 -1.502237 -3.28001811 -0.76143278 0 0 Z " fill="#515F7A" transform="translate(318,163)"/>
<path d="M0 0 C0.33 0.66 0.66 1.32 1 2 C-0.98 2.33 -2.96 2.66 -5 3 C-5 5.31 -5 7.62 -5 10 C-5.99 10 -6.98 10 -8 10 C-9.32850242 3.59903382 -9.32850242 3.59903382 -7.9375 1.0625 C-5.23787512 -0.41793945 -3.02429981 -0.20161999 0 0 Z " fill="#DCE9E5" transform="translate(197,221)"/>
<path d="M0 0 C3.3 0.33 6.6 0.66 10 1 C10 4.63 10 8.26 10 12 C9.01 11.67 8.02 11.34 7 11 C7.66 11 8.32 11 9 11 C9 8.03 9 5.06 9 2 C7.02 2 5.04 2 3 2 C2.34 4.64 1.68 7.28 1 10 C0.67 10 0.34 10 0 10 C0 6.7 0 3.4 0 0 Z " fill="#5D6E73" transform="translate(277,208)"/>
<path d="M0 0 C0.66 0 1.32 0 2 0 C2.66 1.98 3.32 3.96 4 6 C5.98 5.67 7.96 5.34 10 5 C9.67 6.32 9.34 7.64 9 9 C5.625 9.125 5.625 9.125 2 9 C0 7 0 7 -0.125 3.375 C-0.08375 2.26125 -0.0425 1.1475 0 0 Z " fill="#DFEDE6" transform="translate(171,259)"/>
<path d="M0 0 C0.87454834 0.00523682 1.74909668 0.01047363 2.65014648 0.01586914 C3.59438477 0.0190918 4.53862305 0.02231445 5.51147461 0.02563477 C6.50469727 0.03401367 7.49791992 0.04239258 8.52124023 0.05102539 C9.51833008 0.05553711 10.51541992 0.06004883 11.54272461 0.06469727 C14.01478872 0.07652532 16.48673541 0.0930069 18.95874023 0.11352539 C18.95874023 0.44352539 18.95874023 0.77352539 18.95874023 1.11352539 C16.31874023 1.11352539 13.67874023 1.11352539 10.95874023 1.11352539 C10.95874023 1.77352539 10.95874023 2.43352539 10.95874023 3.11352539 C9.63874023 3.11352539 8.31874023 3.11352539 6.95874023 3.11352539 C6.95874023 2.45352539 6.95874023 1.79352539 6.95874023 1.11352539 C5.59749023 1.67040039 5.59749023 1.67040039 4.20874023 2.23852539 C0.95874023 3.11352539 0.95874023 3.11352539 -1.41625977 2.23852539 C-1.95250977 1.86727539 -2.48875977 1.49602539 -3.04125977 1.11352539 C-2.04125977 0.11352539 -2.04125977 0.11352539 0 0 Z " fill="#2A4255" transform="translate(184.041259765625,216.886474609375)"/>
<path d="M0 0 C2.64 0.33 5.28 0.66 8 1 C7.67 1.66 7.34 2.32 7 3 C5.35 3.33 3.7 3.66 2 4 C1.67 9.61 1.34 15.22 1 21 C0.67 21 0.34 21 0 21 C0 14.07 0 7.14 0 0 Z " fill="#2D4253" transform="translate(264,276)"/>
<path d="M0 0 C0.66 0 1.32 0 2 0 C2 2.97 2 5.94 2 9 C1.01 9.33 0.02 9.66 -1 10 C-1 10.66 -1 11.32 -1 12 C-1.66 11.67 -2.32 11.34 -3 11 C-2.88590407 9.54077307 -2.75834456 8.08259402 -2.625 6.625 C-2.55539063 5.81289062 -2.48578125 5.00078125 -2.4140625 4.1640625 C-2 2 -2 2 0 0 Z " fill="#214060" transform="translate(225,242)"/>
<path d="M0 0 C1.32 0 2.64 0 4 0 C4.33 1.98 4.66 3.96 5 6 C3.34385343 6.38218767 1.67542976 6.71395102 0 7 C-1 6 -1 6 -1.125 3.5 C-1 1 -1 1 0 0 Z " fill="#475764" transform="translate(192,247)"/>
<path d="M0 0 C2.87525669 -0.05425013 5.74947646 -0.09379277 8.625 -0.125 C9.43324219 -0.14175781 10.24148437 -0.15851563 11.07421875 -0.17578125 C15.73939377 -0.2137095 19.69801898 -0.04920863 24 2 C24.33 2.99 24.66 3.98 25 5 C24.05253906 4.69255859 24.05253906 4.69255859 23.0859375 4.37890625 C15.40532372 2.06586838 7.9960422 1.33851857 0 1 C0 0.67 0 0.34 0 0 Z " fill="#445868" transform="translate(245,168)"/>
<path d="M0 0 C0.66 0 1.32 0 2 0 C1.67 0.99 1.34 1.98 1 3 C1.66 3.66 2.32 4.32 3 5 C0.09399739 6.25664978 -1.79604584 7 -5 7 C-5.33 6.01 -5.66 5.02 -6 4 C-5.34 4 -4.68 4 -4 4 C-4.33 3.01 -4.66 2.02 -5 1 C-3.35 1.33 -1.7 1.66 0 2 C0 1.34 0 0.68 0 0 Z " fill="#23405C" transform="translate(236,233)"/>
<path d="M0 0 C2.0625 0.4375 2.0625 0.4375 4 1 C4 2.65 4 4.3 4 6 C2.125 6.625 2.125 6.625 0 7 C-0.66 6.34 -1.32 5.68 -2 5 C-1.46428571 1.46428571 -1.46428571 1.46428571 0 0 Z " fill="#455768" transform="translate(175,259)"/>
<path d="M0 0 C0.99 0.33 1.98 0.66 3 1 C3 1.66 3 2.32 3 3 C2.34 3 1.68 3 1 3 C0.773125 3.639375 0.54625 4.27875 0.3125 4.9375 C-1 7 -1 7 -3.625 7.75 C-4.800625 7.87375 -4.800625 7.87375 -6 8 C-6 6.35 -6 4.7 -6 3 C-4.02 3 -2.04 3 0 3 C0 2.01 0 1.02 0 0 Z " fill="#203E60" transform="translate(236,250)"/>
<path d="M0 0 C1.98 0 3.96 0 6 0 C6 1.98 6 3.96 6 6 C4.02 6 2.04 6 0 6 C0 4.02 0 2.04 0 0 Z " fill="#224263" transform="translate(279,246)"/>
<path d="M0 0 C5.61 0 11.22 0 17 0 C17 0.33 17 0.66 17 1 C12.545 1.495 12.545 1.495 8 2 C7.67 2.99 7.34 3.98 7 5 C4.69 4.34 2.38 3.68 0 3 C0 2.01 0 1.02 0 0 Z " fill="#233C55" transform="translate(303,241)"/>
<path d="M0 0 C5.625 -0.25 5.625 -0.25 9 2 C9.1875 5.625 9.1875 5.625 9 9 C8.01 9 7.02 9 6 9 C5.938125 8.236875 5.87625 7.47375 5.8125 6.6875 C5.23675967 3.76885423 5.23675967 3.76885423 2.4375 2.25 C1.633125 1.8375 0.82875 1.425 0 1 C0 0.67 0 0.34 0 0 Z " fill="#D4DACE" transform="translate(328,233)"/>
<path d="M0 0 C1.4540625 0.0309375 1.4540625 0.0309375 2.9375 0.0625 C2.9375 1.0525 2.9375 2.0425 2.9375 3.0625 C1.5453125 2.9696875 1.5453125 2.9696875 0.125 2.875 C-3.03914346 2.70696154 -3.03914346 2.70696154 -4.5625 4.5625 C-6.0625 6.0625 -6.0625 6.0625 -9.25 6.25 C-10.6421875 6.1571875 -10.6421875 6.1571875 -12.0625 6.0625 C-11.0725 5.4025 -10.0825 4.7425 -9.0625 4.0625 C-9.0625 3.4025 -9.0625 2.7425 -9.0625 2.0625 C-7.8559375 1.8459375 -7.8559375 1.8459375 -6.625 1.625 C-3.38094737 0.91289089 -3.48783019 0.07118021 0 0 Z " fill="#344560" transform="translate(331.0625,230.9375)"/>
<path d="M0 0 C0.99 0 1.98 0 3 0 C3.33 1.98 3.66 3.96 4 6 C2.125 6.625 2.125 6.625 0 7 C-0.66 6.34 -1.32 5.68 -2 5 C-1.46428571 1.46428571 -1.46428571 1.46428571 0 0 Z " fill="#455763" transform="translate(305,247)"/>
<path d="M0 0 C3.375 -0.1875 3.375 -0.1875 7 0 C9.29013653 3.4352048 9.17842973 4.985331 9 9 C8.34 9 7.68 9 7 9 C7 7.02 7 5.04 7 3 C4.36 3 1.72 3 -1 3 C-0.67 2.01 -0.34 1.02 0 0 Z " fill="#D8E7E3" transform="translate(303,245)"/>
<path d="M0 0 C1.98 0 3.96 0 6 0 C6 2.97 6 5.94 6 9 C0.42857143 3.85714286 0.42857143 3.85714286 0 0 Z " fill="#EFF4E0" transform="translate(216,226)"/>
<path d="M0 0 C-0.33 2.31 -0.66 4.62 -1 7 C-1.66 7 -2.32 7 -3 7 C-3 7.66 -3 8.32 -3 9 C-3.99 8.67 -4.98 8.34 -6 8 C-5.34 8 -4.68 8 -4 8 C-4 7.34 -4 6.68 -4 6 C-4.66 5.67 -5.32 5.34 -6 5 C-6 4.01 -6 3.02 -6 2 C-2.25 0 -2.25 0 0 0 Z " fill="#314C6B" transform="translate(239,267)"/>
<path d="M0 0 C1.32 0.66 2.64 1.32 4 2 C4 3.32 4 4.64 4 6 C0.25 7.125 0.25 7.125 -2 6 C-1.125 1.125 -1.125 1.125 0 0 Z " fill="#405465" transform="translate(323,259)"/>
<path d="M0 0 C1.98 0 3.96 0 6 0 C6 1.65 6 3.3 6 5 C4.02 5.33 2.04 5.66 0 6 C0 4.02 0 2.04 0 0 Z " fill="#F4F6D4" transform="translate(215,247)"/>
<path d="M0 0 C1.65 0.33 3.3 0.66 5 1 C4.67 2.65 4.34 4.3 4 6 C2.35 5.67 0.7 5.34 -1 5 C-0.67 3.35 -0.34 1.7 0 0 Z " fill="#404F5C" transform="translate(167,236)"/>
<path d="M0 0 C1.65 0.33 3.3 0.66 5 1 C4.67 2.65 4.34 4.3 4 6 C2.35 5.67 0.7 5.34 -1 5 C-0.67 3.35 -0.34 1.7 0 0 Z " fill="#3E555F" transform="translate(322,212)"/>
<path d="M0 0 C0 1.65 0 3.3 0 5 C-1.65 5 -3.3 5 -5 5 C-5.33 3.35 -5.66 1.7 -6 0 C-3.50907189 -1.24546405 -2.58919267 -0.7767578 0 0 Z " fill="#415264" transform="translate(179,213)"/>
<path d="M0 0 C0.99 0.33 1.98 0.66 3 1 C3 1.66 3 2.32 3 3 C6.3 3 9.6 3 13 3 C13 3.66 13 4.32 13 5 C11.20866022 5.05391993 9.41686101 5.09275571 7.625 5.125 C6.62726563 5.14820313 5.62953125 5.17140625 4.6015625 5.1953125 C2 5 2 5 0 3 C0 2.01 0 1.02 0 0 Z " fill="#EDF5E9" transform="translate(172,235)"/>
<path d="M0 0 C-3.46747828 2.77398263 -7.06402511 4.95912413 -11 7 C-13 6 -13 6 -14 4 C-12.02 4 -10.04 4 -8 4 C-8 3.01 -8 2.02 -8 1 C-5.29120665 -0.35439668 -2.99066732 -0.06501451 0 0 Z " fill="#586B85" transform="translate(293,331)"/>
<path d="M0 0 C1.32 0 2.64 0 4 0 C3.67 1.98 3.34 3.96 3 6 C4.32 6.33 5.64 6.66 7 7 C4.03 6.67 1.06 6.34 -2 6 C-1.34 4.02 -0.68 2.04 0 0 Z " fill="#F1F6E1" transform="translate(265,269)"/>
<path d="M0 0 C2 3 2 3 2 5 C-1.44450737 7.29633824 -3.93812283 7.54016485 -8 8 C-6.25 5.5 -6.25 5.5 -4 3 C-2.68 3 -1.36 3 0 3 C0 2.01 0 1.02 0 0 Z " fill="#42566F" transform="translate(204,249)"/>
<path d="M0 0 C1.67542976 0.28604898 3.34385343 0.61781233 5 1 C4.67 2.65 4.34 4.3 4 6 C2.68 5.67 1.36 5.34 0 5 C-0.5625 3.0625 -0.5625 3.0625 -1 1 C-0.67 0.67 -0.34 0.34 0 0 Z " fill="#3F4B5A" transform="translate(329,236)"/>
<path d="M0 0 C1.32 0 2.64 0 4 0 C4.33 3.96 4.66 7.92 5 12 C4.01 12.33 3.02 12.66 2 13 C1.34 12.34 0.68 11.68 0 11 C0.99 11 1.98 11 3 11 C3 7.7 3 4.4 3 1 C2.01 0.67 1.02 0.34 0 0 Z M5 2 C5.33 2 5.66 2 6 2 C6 4.97 6 7.94 6 11 C5.67 11 5.34 11 5 11 C5 8.03 5 5.06 5 2 Z " fill="#546B7C" transform="translate(236,221)"/>
<path d="M0 0 C0 3.3 0 6.6 0 10 C-0.33 10 -0.66 10 -1 10 C-1.66 7.36 -2.32 4.72 -3 2 C-3.99 2 -4.98 2 -6 2 C-6.33 3.65 -6.66 5.3 -7 7 C-7.33 7 -7.66 7 -8 7 C-8 4.69 -8 2.38 -8 0 C-4.63458162 -1.08174162 -3.70152678 -0.92538169 0 0 Z " fill="#425467" transform="translate(270,223)"/>
<path d="M0 0 C-0.99 0.33 -1.98 0.66 -3 1 C-3 3.97 -3 6.94 -3 10 C-3.99 10.495 -3.99 10.495 -5 11 C-5 10.01 -5 9.02 -5 8 C-5.66 8 -6.32 8 -7 8 C-6.4140625 1.84765625 -6.4140625 1.84765625 -6 0 C-3.50907189 -1.24546405 -2.58919267 -0.7767578 0 0 Z " fill="#42586E" transform="translate(175,210)"/>
<path d="M0 0 C0.66 0.33 1.32 0.66 2 1 C2 4.3 2 7.6 2 11 C1.01 10.67 0.02 10.34 -1 10 C-1.02689216 8.52093108 -1.04634621 7.04172517 -1.0625 5.5625 C-1.07410156 4.73878906 -1.08570313 3.91507813 -1.09765625 3.06640625 C-1 1 -1 1 0 0 Z " fill="#F3F4DE" transform="translate(275,207)"/>
<path d="M0 0 C1.37562854 1.28965176 2.70766393 2.62689293 4 4 C4 4.66 4 5.32 4 6 C4.66 6.66 5.32 7.32 6 8 C8 10 8 10 8 12 C7.34 12 6.68 12 6 12 C4.23828125 10.13671875 4.23828125 10.13671875 2.3125 7.6875 C1.66925781 6.88699219 1.02601563 6.08648437 0.36328125 5.26171875 C-0.08660156 4.51535156 -0.53648437 3.76898438 -1 3 C-0.67 2.01 -0.34 1.02 0 0 Z " fill="#68758A" transform="translate(167,296)"/>
<path d="M0 0 C1.32 0 2.64 0 4 0 C3.67 4.29 3.34 8.58 3 13 C2.34 13 1.68 13 1 13 C0.4375 11.0625 0.4375 11.0625 0 9 C0.33 8.67 0.66 8.34 1 8 C1.24733137 3.85723125 1.24733137 3.85723125 0 0 Z " fill="#3A526D" transform="translate(310,246)"/>
<path d="M0 0 C1.65 0 3.3 0 5 0 C5.5625 1.9375 5.5625 1.9375 6 4 C5 5 5 5 2.4375 5.0625 C1.2309375 5.0315625 1.2309375 5.0315625 0 5 C0 3.35 0 1.7 0 0 Z " fill="#394C5E" transform="translate(191,224)"/>
<path d="M0 0 C-0.33 0.99 -0.66 1.98 -1 3 C-3.31 3 -5.62 3 -8 3 C-8.33 3.66 -8.66 4.32 -9 5 C-9.99 5.33 -10.98 5.66 -12 6 C-11 3 -11 3 -7.6875 1.3125 C-4 0 -4 0 0 0 Z " fill="#5F6C86" transform="translate(176,167)"/>
<path d="M0 0 C4.96432365 -0.29201904 8.03701574 -0.14707573 12 3 C12.33 3.99 12.66 4.98 13 6 C8.52761347 4.58192622 4.28853694 2.88695626 0 1 C0 0.67 0 0.34 0 0 Z " fill="#667288" transform="translate(230,343)"/>
<path d="M0 0 C0.66 0 1.32 0 2 0 C2 0.66 2 1.32 2 2 C3.65 2 5.3 2 7 2 C7 2.33 7 2.66 7 3 C4.69 3.33 2.38 3.66 0 4 C-0.33 5.98 -0.66 7.96 -1 10 C-1.66 9.34 -2.32 8.68 -3 8 C-2.67028521 4.70285207 -2.3773161 3.3773161 0 1 C0 0.67 0 0.34 0 0 Z " fill="#425C76" transform="translate(189,218)"/>
<path d="M0 0 C0.66 0.33 1.32 0.66 2 1 C1.125 7.875 1.125 7.875 0 9 C-2.67058851 9.14115161 -5.32432238 9.04247107 -8 9 C-8 8.67 -8 8.34 -8 8 C-7.05125 7.79375 -6.1025 7.5875 -5.125 7.375 C-1.70833333 6.29166667 -1.70833333 6.29166667 -0.625 2.875 C-0.41875 1.92625 -0.2125 0.9775 0 0 Z " fill="#3C5168" transform="translate(330,213)"/>
<path d="M0 0 C2.8125 -0.25 2.8125 -0.25 6 0 C7.9375 1.75 7.9375 1.75 9 4 C8.6875 6.25 8.6875 6.25 8 8 C6 7 6 7 5 4 C3.35857037 2.9590934 1.69287785 1.95495674 0 1 C0 0.67 0 0.34 0 0 Z " fill="#C1CBCA" transform="translate(321,209)"/>
<path d="M0 0 C1.98 0 3.96 0 6 0 C6.33 0.99 6.66 1.98 7 3 C7.66 3 8.32 3 9 3 C9.33 3.99 9.66 4.98 10 6 C5.56909529 4.79157144 3.01887244 3.48331435 0 0 Z " fill="#374B5C" transform="translate(269,171)"/>
<path d="M0 0 C0.99 0.33 1.98 0.66 3 1 C-0.12488567 3.52394612 -3.31314387 5.39701907 -7 7 C-7.66 6.67 -8.32 6.34 -9 6 C-8.34 5.01 -7.68 4.02 -7 3 C-3.375 2.3125 -3.375 2.3125 0 2 C0 1.34 0 0.68 0 0 Z " fill="#6B7C90" transform="translate(277,337)"/>
<path d="M0 0 C0.99 0.33 1.98 0.66 3 1 C2.67 3.31 2.34 5.62 2 8 C2.66 8 3.32 8 4 8 C4 8.66 4 9.32 4 10 C2.68 10 1.36 10 0 10 C0 6.7 0 3.4 0 0 Z " fill="#D2DFDA" transform="translate(230,223)"/>
<path d="M0 0 C1.65 0 3.3 0 5 0 C5 1.65 5 3.3 5 5 C3.35 5 1.7 5 0 5 C0 3.35 0 1.7 0 0 Z " fill="#33475B" transform="translate(304,224)"/>
<path d="M0 0 C0.99 0 1.98 0 3 0 C3 1.32 3 2.64 3 4 C4.32 4.33 5.64 4.66 7 5 C7 5.33 7 5.66 7 6 C5.00045254 6.04254356 2.99958364 6.04080783 1 6 C0 5 0 5 -0.0625 2.4375 C-0.041875 1.633125 -0.02125 0.82875 0 0 Z " fill="#233F5F" transform="translate(297,253)"/>
<path d="M0 0 C1.65 0.33 3.3 0.66 5 1 C4.67 2.65 4.34 4.3 4 6 C1.69 5.67 -0.62 5.34 -3 5 C-2.505 4.54625 -2.01 4.0925 -1.5 3.625 C0.22609337 2.12364481 0.22609337 2.12364481 0 0 Z " fill="#DFE3CA" transform="translate(263,234)"/>
<path d="M0 0 C0.99 0 1.98 0 3 0 C2.67 2.31 2.34 4.62 2 7 C1.01 7 0.02 7 -1 7 C-0.67 4.69 -0.34 2.38 0 0 Z " fill="#EBE7B5" transform="translate(219,182)"/>
<path d="M0 0 C2.97 0.495 2.97 0.495 6 1 C5.34 2.32 4.68 3.64 4 5 C2.35 5 0.7 5 -1 5 C-0.67 3.35 -0.34 1.7 0 0 Z " fill="#304964" transform="translate(263,257)"/>
<path d="M0 0 C1.65 0 3.3 0 5 0 C4.67 0.99 4.34 1.98 4 3 C4 3.99 4 4.98 4 6 C1.69 5.01 -0.62 4.02 -3 3 C-2.01 2.67 -1.02 2.34 0 2 C0 1.34 0 0.68 0 0 Z " fill="#364F67" transform="translate(196,242)"/>
<path d="M0 0 C1.65 0.33 3.3 0.66 5 1 C5.33 1.99 5.66 2.98 6 4 C4.02 4.33 2.04 4.66 0 5 C-0.33 4.01 -0.66 3.02 -1 2 C-0.67 1.34 -0.34 0.68 0 0 Z " fill="#EAF0D2" transform="translate(233,210)"/>
<path d="M0 0 C5.94 1.485 5.94 1.485 12 3 C12 3.33 12 3.66 12 4 C9.03 4 6.06 4 3 4 C3 3.34 3 2.68 3 2 C2.01 2 1.02 2 0 2 C0 1.34 0 0.68 0 0 Z " fill="#D9E4D4" transform="translate(278,195)"/>
<path d="M0 0 C2.31 0 4.62 0 7 0 C7 0.99 7 1.98 7 3 C4.69 3 2.38 3 0 3 C0 2.01 0 1.02 0 0 Z " fill="#E5F5E6" transform="translate(296,261)"/>
<path d="M0 0 C0.33 1.32 0.66 2.64 1 4 C-1.375 4.625 -1.375 4.625 -4 5 C-4.66 4.34 -5.32 3.68 -6 3 C-5.34 3 -4.68 3 -4 3 C-4 2.34 -4 1.68 -4 1 C-2.68 0.67 -1.36 0.34 0 0 Z " fill="#B8C4C1" transform="translate(196,228)"/>
<path d="M0 0 C0.99 0 1.98 0 3 0 C4.29676812 4.61073111 3.71109139 8.33840089 3 13 C2.67 13 2.34 13 2 13 C1.93941406 12.39671875 1.87882812 11.7934375 1.81640625 11.171875 C1.69072266 9.97304687 1.69072266 9.97304687 1.5625 8.75 C1.48128906 7.96109375 1.40007812 7.1721875 1.31640625 6.359375 C1.02365007 4.17635361 0.57935581 2.1226818 0 0 Z " fill="#394C5F" transform="translate(294,200)"/>
<path d="M0 0 C2.0625 0.4375 2.0625 0.4375 4 1 C4.33 2.65 4.66 4.3 5 6 C4.01 6.495 4.01 6.495 3 7 C1.68 5.02 0.36 3.04 -1 1 C-0.67 0.67 -0.34 0.34 0 0 Z " fill="#374F65" transform="translate(280,176)"/>
<path d="M0 0 C0 0.33 0 0.66 0 1 C-3.96 1.99 -7.92 2.98 -12 4 C-12 3.34 -12 2.68 -12 2 C-7.52828892 -0.66173278 -5.06604612 -1.3268216 0 0 Z " fill="#3F5266" transform="translate(239,170)"/>
<path d="M0 0 C-2.18133706 2.50853762 -3.67085353 3.61952612 -7 4 C-9.00946222 3.72949547 -11.01354224 3.40632091 -13 3 C-8.48166204 0.66292864 -5.11018582 -0.11355968 0 0 Z " fill="#71809E" transform="translate(210,156)"/>
<path d="M0 0 C0.804375 0.7425 0.804375 0.7425 1.625 1.5 C4.59358445 3.37489544 6.55312427 3.23501425 10 3 C9.67 3.66 9.34 4.32 9 5 C6.07286212 5.94934202 4.57168632 6.23176473 1.6875 5.0625 C1.130625 4.711875 0.57375 4.36125 0 4 C0 2.68 0 1.36 0 0 Z " fill="#375164" transform="translate(300,253)"/>
<path d="M0 0 C0.66 0 1.32 0 2 0 C2.99 2.97 3.98 5.94 5 9 C4.34 9.66 3.68 10.32 3 11 C0.87953208 7.46588679 0.46800711 4.05606165 0 0 Z " fill="#375169" transform="translate(185,247)"/>
<path d="M0 0 C-0.99 1.485 -0.99 1.485 -2 3 C-4.97 2.67 -7.94 2.34 -11 2 C-6.78370866 -0.10814567 -4.60209225 -0.17700355 0 0 Z " fill="#6F7B8E" transform="translate(221,154)"/>
<path d="M0 0 C-0.99 0.495 -0.99 0.495 -2 1 C-2 1.66 -2 2.32 -2 3 C-2.66 3 -3.32 3 -4 3 C-4.33 3.66 -4.66 4.32 -5 5 C-5.33 3.35 -5.66 1.7 -6 0 C-3.50907189 -1.24546405 -2.58919267 -0.7767578 0 0 Z " fill="#576780" transform="translate(327,307)"/>
<path d="M0 0 C0.33 0.66 0.66 1.32 1 2 C-6.625 3.25 -6.625 3.25 -10 1 C-6.61981469 -0.04005702 -3.5219721 -0.08004482 0 0 Z " fill="#D7E1D3" transform="translate(234,276)"/>
<path d="M0 0 C2.97 0.495 2.97 0.495 6 1 C6 3.31 6 5.62 6 8 C5.7525 7.38125 5.505 6.7625 5.25 6.125 C3.79371361 3.64931313 2.62187494 3.04874998 0 2 C0 1.34 0 0.68 0 0 Z " fill="#E6F3F0" transform="translate(305,221)"/>
<path d="M0 0 C2.97 0.495 2.97 0.495 6 1 C5.01 2.32 4.02 3.64 3 5 C1.35 4.67 -0.3 4.34 -2 4 C-1.34 3.67 -0.68 3.34 0 3 C0 2.01 0 1.02 0 0 Z " fill="#3D5465" transform="translate(252,183)"/>
<path d="M0 0 C2.64 0 5.28 0 8 0 C4.31265242 2.45823172 1.30300029 3.01242616 -3 4 C-3 3.34 -3 2.68 -3 2 C-2.01 2 -1.02 2 0 2 C0 1.34 0 0.68 0 0 Z " fill="#E3E7DF" transform="translate(240,182)"/>
<path d="M0 0 C0.66 0 1.32 0 2 0 C2.33 2.31 2.66 4.62 3 7 C0 9 0 9 -2.1875 8.625 C-2.785625 8.41875 -3.38375 8.2125 -4 8 C-3.01 7.67 -2.02 7.34 -1 7 C-0.67 4.69 -0.34 2.38 0 0 Z " fill="#BFCACA" transform="translate(308,248)"/>
<path d="M0 0 C-0.33 0.99 -0.66 1.98 -1 3 C-4 4 -4 4 -6.1875 3.0625 C-6.785625 2.711875 -7.38375 2.36125 -8 2 C-8 1.67 -8 1.34 -8 1 C-5.23735711 0.40267181 -2.83967231 0 0 0 Z " fill="#DEE4CC" transform="translate(242,170)"/>
<path d="M0 0 C1.32 0 2.64 0 4 0 C4 1.98 4 3.96 4 6 C1.47867397 4.73933699 1.10672067 3.52964725 0 1 C0 0.67 0 0.34 0 0 Z " fill="#F3F6DB" transform="translate(282,238)"/>
</svg>
